<?xml version="1.0" encoding="utf-8"?>
<!-- Generator: Adobe Illustrator 27.0.0, SVG Export Plug-In . SVG Version: 6.00 Build 0)  -->
<svg version="1.1" xmlns="http://www.w3.org/2000/svg" xmlns:xlink="http://www.w3.org/1999/xlink" x="0px" y="0px"
	 viewBox="0 0 1391 798" style="enable-background:new 0 0 1391 798;" xml:space="preserve">
<style type="text/css">
	.st0{opacity:0.16;fill-rule:evenodd;clip-rule:evenodd;fill:#6E6E6E;stroke:#236C9C;enable-background:new    ;}
	.st1{opacity:0.83;}
	.st2{fill-rule:evenodd;clip-rule:evenodd;fill:url(#Arrow_5_1_00000052084259335970683500000005113450067729109951_);}
	.st3{fill-rule:evenodd;clip-rule:evenodd;fill:url(#Arrow_5_1_copy_00000024681227890037536240000012994871421841182379_);}
	.st4{fill-rule:evenodd;clip-rule:evenodd;fill:url(#arrow-client-side_00000160163901735972013520000003673488946006803330_);}
	
		.st5{fill-rule:evenodd;clip-rule:evenodd;fill:url(#arrow-client-side_copy_00000044866784015032050780000017867942977245782154_);}
	.st6{fill-rule:evenodd;clip-rule:evenodd;fill:#2A417F;}
	.st7{fill:#2A417F;}
</style>
<g id="Layer_1">
	<path id="Shape_85_1" class="st0" d="M1143.9,356.1L1465,857.9l-317.4-444l113.7,348.2l-134.1-239.6l38.7,186.4L1090.6,584
		l-40.1-67l12.8,158.8l-104.4-196l34.8,142.4L834.8,304.2L607.8,641.4l129-342.2c-50.7,94.4-217.9,342-205.4,310
		s106.7-277.7,106.7-277.7S492.9,567.7,498.8,555.1c3.5-7.5,67.1-147.4,118.1-259.5l-268.1,486l111.5-315.7
		c-37.1,53.9-165.2,239.9-163.8,235.3c1.6-5.4,100.9-219.1,100.9-219.1L126,857.9l296-487.3l73.3,84.6l190.5-328L772,286l73.3-99
		L1023,488.2L1143.9,356.1z"/>
	<path id="Shape_85_1_copy" class="st0" d="M993.9,376.1L1315,877.9l-317.5-444l113.7,348.2L977.2,542.5l38.7,186.4L940.6,604
		l-40.1-67l12.8,158.8l-104.4-196l34.8,142.4L684.8,324.2L457.8,661.4l129-342.2c-50.7,94.4-217.9,342-205.4,310
		s106.7-277.7,106.7-277.7S342.9,587.7,348.8,575.1c3.5-7.5,67.1-147.4,118.1-259.5l-268.1,486l111.5-315.7
		c-37.1,53.9-165.2,239.9-163.8,235.3c1.6-5.4,100.9-219.1,100.9-219.1L-24,877.9l296-487.3l73.3,84.6l190.5-328L622,306l73.3-99
		L873,508.2L993.9,376.1z"/>
	
		<image style="overflow:visible;opacity:0.83;enable-background:new    ;" width="231" height="208" id="Blazor" xlink:href="1A2F2C86.png"  transform="matrix(1 0 0 1 36 20)">
	</image>
	
		<image style="overflow:visible;opacity:0.83;enable-background:new    ;" width="192" height="53" id="MacBook_Desktop" xlink:href="1A2F2C8A.png"  transform="matrix(1 0 0 1 388 621)">
	</image>
	
		<image style="overflow:visible;opacity:0.83;enable-background:new    ;" width="177" height="177" id="Asp.NET_Core" xlink:href="1A2F2C8D.png"  transform="matrix(1 0 0 1 229 160)">
	</image>
	
		<image style="overflow:visible;opacity:0.83;enable-background:new    ;" width="197" height="121" id="NodeJS" xlink:href="1A2F2C8E.png"  transform="matrix(1 0 0 1 1012 57)">
	</image>
	
		<image style="overflow:visible;opacity:0.83;enable-background:new    ;" width="73" height="82" id="React" xlink:href="1A2F2C8C.png"  transform="matrix(1 0 0 1 1154 171)">
	</image>
	
		<image style="overflow:visible;opacity:0.83;enable-background:new    ;" width="179" height="67" id="Samsung" xlink:href="1A2F2C8B.png"  transform="matrix(1 0 0 1 808 615)">
	</image>
	
		<image style="overflow:visible;opacity:0.83;enable-background:new    ;" width="160" height="142" id="Vue" xlink:href="1A2F2C85.png"  transform="matrix(1 0 0 1 1190 36)">
	</image>
	
		<image style="overflow:visible;opacity:0.83;enable-background:new    ;" width="90" height="92" id="Windows_Desktop" xlink:href="1A2F2C87.png"  transform="matrix(1 0 0 1 390 465)">
	</image>
	<g id="Windows_Phone" class="st1">
		
			<image style="overflow:visible;opacity:0.83;enable-background:new    ;" width="51" height="51" id="Logo" xlink:href="1A2F2C84.png"  transform="matrix(1 0 0 1 602 712)">
		</image>
		
			<image style="overflow:visible;opacity:0.83;enable-background:new    ;" width="72" height="22" id="Phones" xlink:href="C8D16FB9.png"  transform="matrix(1 0 0 1 664 741)">
		</image>
		
			<image style="overflow:visible;opacity:0.83;enable-background:new    ;" width="135" height="28" id="Windows" xlink:href="C8D16FBF.png"  transform="matrix(1 0 0 1 661 710)">
		</image>
	</g>
	
		<image style="overflow:visible;opacity:0.83;enable-background:new    ;" width="85" height="101" id="Android" xlink:href="C8D16FB8.png"  transform="matrix(1 0 0 1 645 532)">
	</image>
	
		<image style="overflow:visible;opacity:0.83;enable-background:new    ;" width="92" height="92" id="iPHone" xlink:href="C8D16FBB.png"  transform="matrix(1 0 0 1 895 465)">
	</image>
	
		<image style="overflow:visible;opacity:0.83;enable-background:new    ;" width="159" height="168" id="Angular" xlink:href="C8D16FA7.png"  transform="matrix(1 0 0 1 946 169)">
	</image>
	
		<linearGradient id="Arrow_5_1_00000129200821142983471350000001149474478185374087_" gradientUnits="userSpaceOnUse" x1="498.499" y1="623.972" x2="498.499" y2="671.03" gradientTransform="matrix(1 0 0 -1 0 798)">
		<stop  offset="0" style="stop-color:#181E26"/>
		<stop  offset="1" style="stop-color:#6386BA"/>
	</linearGradient>
	
		<path id="Arrow_5_1" style="fill-rule:evenodd;clip-rule:evenodd;fill:url(#Arrow_5_1_00000129200821142983471350000001149474478185374087_);" d="
		M569.9,154.6H464.1c5.1,7.6,7.6,12.6,7.9,19.4c-11.6-11.7-26.7-17.8-44.9-23.5c18.2-5.5,32.6-12.2,44.9-23.5
		c-0.8,7.4-2.9,11.8-8.1,19.9h106V154.6L569.9,154.6z"/>
	
		<linearGradient id="Arrow_5_1_copy_00000010303874723259210230000008843905037668441000_" gradientUnits="userSpaceOnUse" x1="522.8295" y1="376.24" x2="522.8295" y2="472.945" gradientTransform="matrix(1 0 0 -1 0 798)">
		<stop  offset="0" style="stop-color:#181E26"/>
		<stop  offset="1" style="stop-color:#6386BA"/>
	</linearGradient>
	
		<path id="Arrow_5_1_copy" style="fill-rule:evenodd;clip-rule:evenodd;fill:url(#Arrow_5_1_copy_00000010303874723259210230000008843905037668441000_);" d="
		M472.7,325.1l80,69.3c1.1-9.1,2.5-14.5,6.7-19.8c1.1,16.4,8.5,30.9,18.5,47.2c-17.4-7.8-32.7-12.2-49.4-11.6
		c5.4-5.1,9.9-7,19.2-9.8l-80.1-69.4L472.7,325.1z"/>
	
		<linearGradient id="arrow-client-side_00000049212115261546804280000004295090895310353035_" gradientUnits="userSpaceOnUse" x1="890.5005" y1="622.97" x2="890.5005" y2="670.028" gradientTransform="matrix(1 0 0 -1 0 798)">
		<stop  offset="0" style="stop-color:#181E26"/>
		<stop  offset="1" style="stop-color:#6386BA"/>
	</linearGradient>
	
		<path id="arrow-client-side" style="fill-rule:evenodd;clip-rule:evenodd;fill:url(#arrow-client-side_00000049212115261546804280000004295090895310353035_);" d="
		M819.1,147.4h105.9c-5.1-7.6-7.6-12.6-7.9-19.4c11.6,11.7,26.7,17.8,44.9,23.5c-18.2,5.5-32.6,12.2-44.9,23.5
		c0.8-7.4,2.9-11.8,8.1-19.9h-106V147.4L819.1,147.4z"/>
	
		<linearGradient id="arrow-client-side_copy_00000065034481229114744380000011971702155568448939_" gradientUnits="userSpaceOnUse" x1="882.447" y1="366.783" x2="882.447" y2="472.244" gradientTransform="matrix(1 0 0 -1 0 798)">
		<stop  offset="0" style="stop-color:#181E26"/>
		<stop  offset="1" style="stop-color:#6386BA"/>
	</linearGradient>
	
		<path id="arrow-client-side_copy" style="fill-rule:evenodd;clip-rule:evenodd;fill:url(#arrow-client-side_copy_00000065034481229114744380000011971702155568448939_);" d="
		M933.5,331.1l-73.4,76.3c9,1.6,14.4,3.2,19.5,7.8c-16.5,0.3-31.3,6.9-48.1,16.1c8.7-16.9,13.8-32,14.2-48.7
		c4.8,5.7,6.5,10.3,8.8,19.6l73.5-76.4L933.5,331.1z"/>
</g>
<g id="Layer_2">
	<g id="jsopx-logo">
		<path class="st6" d="M765.4,54.9c0-11.2-18.4-20.9-28.8-18.2L621.9,55c-8.8,0.4-15.7,7.9-15.7,17.1V175c0,6.5,3.4,12.1,8.5,15
			c0-0.1,0-0.3,0-0.4v-17.1c0-2,1-3.8,2.5-4.8v-7.8c-4.8-2.2-8.2-7.2-8.2-13.1c0-5.9,3.4-10.9,8.2-13.1v-8.1
			c-4.8-2.2-8.2-7.2-8.2-13.1c0-5.9,3.4-10.9,8.2-13.1v-8.1c-4.8-2.2-8.2-7.2-8.2-13.1c0-7.9,6.1-14.3,13.7-14.3
			c2.9,0,5.6,0.9,7.8,2.5h127.2c2.2-1.6,4.9-2.5,7.8-2.5c7.6,0,13.7,6.4,13.7,14.3c0,5.9-3.4,10.9-8.2,13.1v8.1
			c4.8,2.2,8.2,7.2,8.2,13.1c0,5.9-3.4,10.9-8.2,13.1v8.1c4.8,2.2,8.2,7.2,8.2,13.1c0,5.9-3.4,10.9-8.2,13.1v7.8
			c1.5,1,2.5,2.8,2.5,4.8v17.1c0,0.1,0,0.3,0,0.4c5.1-2.9,8.5-8.6,8.5-15V72.1C781.8,62.6,774.5,54.9,765.4,54.9z M748.9,54.9h-81.7
			l63.8-3.9c3.5-0.9,17.8-2.3,17.8,1.4V54.9z"/>
		<path class="st7" d="M684.8,165.2c1.6,0.3,2.6,1.9,2.3,3.5l-6.8,35.4c-0.3,1.6-1.8,2.7-3.4,2.4l-17-3.5c-1.6-0.3-2.6-1.9-2.3-3.5
			l6.8-35.4c0.3-1.6,1.8-2.7,3.4-2.4L684.8,165.2z M668.4,158.7c-3.1-0.7-6.2,1.5-6.8,4.7l-6.8,35.4c-0.6,3.3,1.4,6.4,4.5,7.1
			l17,3.5c3.1,0.7,6.2-1.5,6.8-4.7l6.8-35.4c0.6-3.3-1.4-6.4-4.5-7.1L668.4,158.7z"/>
		<path class="st7" d="M668.9,201.7c1.6,0.3,3.1-0.7,3.4-2.4s-0.7-3.2-2.3-3.5c-1.6-0.3-3.1,0.7-3.4,2.4
			C666.3,199.8,667.4,201.4,668.9,201.7z"/>
		<path class="st7" d="M695.5,171.2c0.5-1.4,2.1-2.1,3.5-1.5l30.4,12.5c1.4,0.6,2.1,2.2,1.6,3.6l-7.8,20.5c-0.5,1.4-2.1,2.1-3.5,1.5
			l-30.4-12.5c-1.4-0.6-2.1-2.2-1.6-3.6L695.5,171.2z M685.2,190.6c-1.1,2.8,0.3,6,3.1,7.2l30.4,12.5c2.8,1.2,5.9-0.2,7-3l7.8-20.5
			c1.1-2.8-0.3-6-3.1-7.2L700,167.1c-2.8-1.2-5.9,0.2-7,3L685.2,190.6z"/>
		<path class="st7" d="M724.5,195c0.5-1.4-0.2-3-1.6-3.6c-1.4-0.6-3,0.1-3.5,1.5c-0.5,1.4,0.2,3,1.6,3.6
			C722.4,197.1,724,196.4,724.5,195z"/>
		<path class="st6" d="M617.5,172.4c-5.8,0-5.8,6.2-5.8,6.2v18.6c0,6.2,5.8,6.2,5.8,6.2h11.7c0,2.1-0.2,3.6-0.7,4.6h-2.2
			c-0.8,0-1.5,0.7-1.5,1.5h20.4c0-0.9-0.7-1.5-1.5-1.5h-2.2c-0.5-1-0.7-2.6-0.7-4.6h11.7c5.8,0,5.8-6.2,5.8-6.2v-18.6
			c0-6.2-5.8-6.2-5.8-6.2H617.5z M615.7,176c0.3-0.2,0.8-0.4,1.8-0.4h35c0,0,0,0,0.1,0c0.1,0,0.2,0,0.4,0.1c0.4,0.1,0.8,0.2,1.2,0.4
			c0.4,0.2,0.7,0.5,0.9,0.8c0.2,0.3,0.4,0.9,0.4,1.9v18.5c0,0,0,0,0,0.1c0,0.1,0,0.2,0,0.4c-0.1,0.4-0.2,0.8-0.4,1.3
			c-0.2,0.4-0.4,0.7-0.7,0.9c-0.3,0.2-0.8,0.4-1.8,0.4h-35c0,0,0,0-0.1,0c-0.1,0-0.2,0-0.4-0.1c-0.4-0.1-0.8-0.2-1.2-0.4
			c-0.4-0.2-0.7-0.5-0.9-0.8c-0.2-0.3-0.4-0.9-0.4-1.9v-18.5c0,0,0,0,0-0.1c0-0.1,0-0.2,0-0.4c0.1-0.4,0.2-0.8,0.4-1.3
			C615.2,176.5,615.4,176.2,615.7,176z"/>
		<path class="st7" d="M769.1,175.5c0.8,0,1.5,0.7,1.5,1.5v23.2h-35v-23.2c0-0.9,0.7-1.5,1.5-1.5H769.1z M737,172.4
			c-2.4,0-4.4,2.1-4.4,4.6v26.3h40.8v-26.3c0-2.6-2-4.6-4.4-4.6H737z"/>
		<path class="st7" d="M729.7,204.9h46.7c0,2.6-2,4.6-4.4,4.6h-37.9C731.6,209.6,729.7,207.5,729.7,204.9z"/>
		<path class="st7" d="M620.9,78.3c0.1-0.1,0.1-0.3,0-0.4c-0.1-0.1-0.2-0.2-0.4-0.1l-2.1,0.7l0.2,0.7l1.1-0.4l-0.8,1.3
			c-0.1,0.1-0.1,0.3,0,0.4c0.1,0.1,0.2,0.2,0.4,0.1l1.1-0.4l-0.8,1.3c-0.1,0.1-0.1,0.3,0,0.4c0.1,0.1,0.2,0.2,0.4,0.1l2.1-0.7
			l-0.2-0.7l-1.1,0.4l0.8-1.3c0.1-0.1,0.1-0.3,0-0.4c-0.1-0.1-0.2-0.2-0.4-0.1l-1.1,0.4L620.9,78.3z"/>
		<path class="st7" d="M622.6,89.6c6.1,0,11-5.1,11-11.4c0-6.3-4.9-11.4-11-11.4s-11,5.1-11,11.4C611.6,84.5,616.6,89.6,622.6,89.6z
			 M614.1,82.8l2.7-2.4c-0.3-0.7-0.4-1.5-0.4-2.3c0-3.6,2.8-6.4,6.2-6.4c1.8,0,3.4,0.8,4.6,2.1l-5.3,2.2l1.4,3.6l1.8,4.4
			c-0.8,0.4-1.6,0.6-2.5,0.6c-0.8,0-1.5-0.1-2.2-0.4l-2.3,2.8C616.4,86.1,615,84.6,614.1,82.8z M628.8,78.1c0,2-0.9,3.9-2.3,5
			l-1.8-4.3l4.1-1.6C628.8,77.6,628.8,77.8,628.8,78.1z"/>
		<path class="st6" d="M622.2,123.7c6.2,0,11.2-5.2,11.2-11.7c0-6.5-5-11.7-11.2-11.7S611,105.6,611,112
			C611,118.5,616,123.7,622.2,123.7z M625.3,104.1c0.1-0.3-0.1-0.7-0.4-0.8c-0.3-0.1-0.7,0.1-0.8,0.4l-4.9,16.3
			c-0.1,0.3,0.1,0.7,0.4,0.8c0.3,0.1,0.7-0.1,0.8-0.4L625.3,104.1z M618.4,107.2c0.2,0.2,0.2,0.6,0,0.9l-3.8,3.9l3.8,3.9
			c0.2,0.2,0.2,0.6,0,0.9c-0.2,0.2-0.6,0.2-0.9,0l-4.3-4.4c-0.2-0.2-0.2-0.6,0-0.9l4.3-4.4C617.8,107,618.2,107,618.4,107.2z
			 M626.1,108.1c-0.2-0.2-0.2-0.6,0-0.9c0.2-0.2,0.6-0.2,0.9,0l4.3,4.4c0.2,0.2,0.2,0.6,0,0.9l-4.3,4.4c-0.2,0.2-0.6,0.2-0.9,0
			c-0.2-0.2-0.2-0.6,0-0.9l3.8-3.9L626.1,108.1z"/>
		<path class="st7" d="M620.9,142.1c0-1.1,0.8-2,1.9-2c1,0,1.9,0.9,1.9,2v2h-3.8V142.1z"/>
		<path class="st6" d="M622.6,158.2c6.1,0,11-5.1,11-11.4c0-6.3-4.9-11.4-11-11.4s-11,5.1-11,11.4
			C611.6,153,616.6,158.2,622.6,158.2z M626.6,144.2v-2.1c0-2.2-1.7-3.9-3.8-3.9s-3.8,1.8-3.8,3.9v2.1c-1,0.3-1.9,1.2-1.9,2.4v4.7
			c0,1.6,1.5,2.6,2.8,2.6h5.7c1.4,0,2.8-1,2.8-2.6v-4.7C628.5,145.4,627.6,144.5,626.6,144.2z"/>
		<path class="st6" d="M765.4,158.2c6.1,0,11-5.1,11-11.4c0-6.3-4.9-11.4-11-11.4s-11,5.1-11,11.4
			C754.4,153,759.3,158.2,765.4,158.2z M765.5,144.4l-2.2-4.7h-3.8l3.8,7.1l-3.9,7.2h3.8l2.3-4.8l2.3,4.8h3.8l-3.9-7.2l3.8-7.1h-3.8
			L765.5,144.4z"/>
		<path class="st7" d="M764.2,112.6c0.1,0.2,0.3,0.4,0.4,0.6c0.3,0.2,0.6,0.3,1.1,0.3c0.3,0,0.6-0.1,0.8-0.2
			c0.2-0.1,0.4-0.4,0.5-0.6c0.1-0.3,0.2-0.6,0.3-0.9c0.1-0.3,0.1-0.7,0.1-1.1v-0.2c0-0.4,0-0.8-0.1-1.1c-0.1-0.3-0.1-0.6-0.3-0.9
			c-0.1-0.3-0.3-0.4-0.5-0.6c-0.2-0.1-0.4-0.2-0.7-0.2c-0.3,0-0.6,0.1-0.9,0.2c-0.2,0.1-0.4,0.3-0.5,0.5c0,0.1-0.1,0.1-0.1,0.2
			V112.6z"/>
		<path class="st6" d="M765.4,123.9c6.1,0,11-5.1,11-11.4c0-6.3-4.9-11.4-11-11.4s-11,5.1-11,11.4
			C754.4,118.7,759.3,123.9,765.4,123.9z M764.2,115v4.9h-3.2v-14.6h2.9l0.1,1c0.2-0.3,0.5-0.6,0.8-0.8c0.4-0.3,1-0.4,1.6-0.4
			c0.6,0,1.2,0.1,1.7,0.4c0.5,0.3,0.9,0.6,1.2,1.1c0.3,0.5,0.6,1,0.8,1.7c0.2,0.7,0.3,1.4,0.3,2.2v0.2c0,0.8-0.1,1.5-0.3,2.1
			c-0.2,0.7-0.4,1.2-0.8,1.7c-0.3,0.5-0.7,0.9-1.2,1.1c-0.5,0.3-1.1,0.4-1.7,0.4c-0.6,0-1.1-0.1-1.6-0.4
			C764.7,115.5,764.4,115.3,764.2,115z"/>
		<path class="st7" d="M763.5,78.2V78c0-0.4,0-0.9,0.1-1.2c0.1-0.4,0.2-0.7,0.3-1c0.2-0.3,0.4-0.5,0.6-0.7c0.3-0.2,0.6-0.3,1-0.3
			c0.4,0,0.7,0.1,1,0.3c0.3,0.2,0.5,0.4,0.6,0.7c0.2,0.3,0.3,0.6,0.3,1c0.1,0.4,0.1,0.8,0.1,1.2v0.2c0,0.5,0,0.9-0.1,1.3
			c-0.1,0.4-0.2,0.7-0.3,1c-0.2,0.3-0.4,0.5-0.6,0.7c-0.3,0.2-0.6,0.2-0.9,0.2c-0.4,0-0.7-0.1-1-0.2c-0.3-0.2-0.5-0.4-0.6-0.7
			c-0.2-0.3-0.3-0.6-0.3-1C763.5,79.1,763.5,78.7,763.5,78.2z"/>
		<path class="st6" d="M765.4,89.6c6.1,0,11-5.1,11-11.4c0-6.3-4.9-11.4-11-11.4s-11,5.1-11,11.4C754.4,84.5,759.3,89.6,765.4,89.6z
			 M759.9,78v0.2c0,0.9,0.1,1.7,0.4,2.4c0.2,0.7,0.6,1.4,1.1,2c0.5,0.6,1.1,1,1.8,1.3c0.7,0.3,1.5,0.5,2.4,0.5s1.7-0.2,2.4-0.5
			c0.7-0.3,1.3-0.7,1.7-1.3c0.5-0.6,0.8-1.2,1.1-2c0.2-0.8,0.4-1.6,0.4-2.4V78c0-0.9-0.1-1.7-0.4-2.4c-0.2-0.8-0.6-1.4-1.1-2
			s-1.1-1-1.8-1.3c-0.7-0.3-1.5-0.5-2.4-0.5c-0.9,0-1.7,0.2-2.4,0.5c-0.7,0.3-1.3,0.7-1.7,1.3c-0.5,0.6-0.8,1.2-1.1,2
			C760,76.3,759.9,77.1,759.9,78z"/>
		<path class="st7" d="M668.9,129.5V79.3h16.9v50.2c0,4.9-1.1,9.1-3.2,12.7c-2.1,3.6-5,6.4-8.7,8.3c-3.6,1.9-7.7,2.9-12.3,2.9
			c-4.7,0-8.9-0.8-12.5-2.5c-3.6-1.6-6.5-4.2-8.6-7.6c-2.1-3.4-3.1-7.8-3.1-13.1h17c0,2.5,0.3,4.4,0.8,5.8c0.5,1.4,1.4,2.3,2.4,2.9
			c1.1,0.5,2.4,0.8,4,0.8c1.5,0,2.8-0.4,3.9-1.2c1.1-0.8,1.9-2,2.5-3.6C668.6,133.5,668.9,131.7,668.9,129.5z"/>
		<path class="st7" d="M732.8,133c0-1.1-0.2-2.2-0.5-3.1c-0.3-0.9-0.9-1.8-1.8-2.6c-0.9-0.8-2.1-1.6-3.8-2.4
			c-1.6-0.8-3.7-1.7-6.4-2.6c-3.1-1.1-6.1-2.3-8.9-3.6c-2.9-1.4-5.4-3-7.7-4.8c-2.3-1.8-4-4-5.4-6.4c-1.3-2.5-2-5.4-2-8.6
			c0-3.1,0.7-6,2-8.5c1.4-2.5,3.2-4.7,5.6-6.5c2.4-1.8,5.3-3.2,8.6-4.1c3.3-1,6.9-1.5,10.8-1.5c5.1,0,9.7,0.9,13.6,2.8
			c4,1.8,7,4.5,9.3,7.9c2.3,3.4,3.4,7.4,3.4,12h-16.8c0-1.8-0.4-3.5-1.1-4.9c-0.7-1.4-1.8-2.5-3.2-3.3c-1.4-0.8-3.3-1.2-5.5-1.2
			c-2.1,0-3.9,0.3-5.4,1c-1.4,0.7-2.5,1.6-3.3,2.7c-0.7,1.1-1.1,2.3-1.1,3.7c0,1.1,0.3,2.1,0.9,3c0.6,0.9,1.5,1.7,2.6,2.5
			c1.1,0.8,2.5,1.5,4.1,2.2c1.6,0.7,3.4,1.4,5.4,2.1c3.7,1.2,7,2.6,9.9,4.2c2.9,1.5,5.4,3.2,7.4,5.2c2,1.9,3.6,4.1,4.6,6.5
			c1.1,2.4,1.6,5.2,1.6,8.3c0,3.3-0.6,6.2-1.8,8.7c-1.2,2.5-3,4.7-5.3,6.5c-2.3,1.7-5,3.1-8.2,4c-3.2,0.9-6.7,1.4-10.7,1.4
			c-3.6,0-7.2-0.5-10.7-1.4c-3.5-1-6.6-2.4-9.5-4.4c-2.8-2-5.1-4.6-6.8-7.7c-1.7-3.1-2.5-6.9-2.5-11.2h17c0,2.1,0.3,4,0.8,5.4
			c0.5,1.5,1.4,2.7,2.4,3.6c1.1,0.9,2.4,1.5,3.9,1.9c1.5,0.4,3.3,0.6,5.3,0.6c2.2,0,3.9-0.3,5.2-1c1.3-0.7,2.3-1.5,2.9-2.6
			C732.5,135.5,732.8,134.3,732.8,133z"/>
	</g>
</g>
</svg>
