<?xml version="1.0" encoding="utf-8"?>
<!-- Generator: Adobe Illustrator 27.0.0, SVG Export Plug-In . SVG Version: 6.00 Build 0)  -->
<svg version="1.1" xmlns="http://www.w3.org/2000/svg" xmlns:xlink="http://www.w3.org/1999/xlink" x="0px" y="0px"
	 viewBox="0 0 1391 798" style="enable-background:new 0 0 1391 798;" xml:space="preserve">
<style type="text/css">
	.st0{opacity:0.16;fill-rule:evenodd;clip-rule:evenodd;fill:#6E6E6E;stroke:#236C9C;enable-background:new    ;}
	.st1{opacity:0.83;}
	.st2{fill-rule:evenodd;clip-rule:evenodd;fill:url(#Arrow_5_1_00000032619063761179130390000010202226687803947442_);}
	.st3{fill-rule:evenodd;clip-rule:evenodd;fill:url(#Arrow_5_1_copy_00000172402428047258856350000017250841707945642392_);}
	.st4{fill-rule:evenodd;clip-rule:evenodd;fill:url(#arrow-client-side_00000157309857309318204310000000230229546452847287_);}
	
		.st5{fill-rule:evenodd;clip-rule:evenodd;fill:url(#arrow-client-side_copy_00000152969079695841251810000002433983734313167521_);}
	.st6{fill:#FDEADF;}
	.st7{fill:#426DB4;}
</style>
<g id="Layer_1">
	<path id="Shape_85_1" class="st0" d="M1143.9,356.1L1465,857.9l-317.4-444l113.7,348.2l-134.1-239.6l38.7,186.4L1090.6,584
		l-40.1-67l12.8,158.8l-104.4-196l34.8,142.4L834.8,304.2L607.8,641.4l129-342.2c-50.7,94.4-217.9,342-205.4,310
		s106.7-277.7,106.7-277.7S492.9,567.7,498.8,555.1c3.5-7.5,67.1-147.4,118.1-259.5l-268.1,486l111.5-315.7
		c-37.1,53.9-165.2,239.9-163.8,235.3c1.6-5.4,100.9-219.1,100.9-219.1L126,857.9l296-487.3l73.3,84.6l190.5-328L772,286l73.3-99
		L1023,488.2L1143.9,356.1z"/>
	<path id="Shape_85_1_copy" class="st0" d="M993.9,376.1L1315,877.9l-317.5-444l113.7,348.2L977.2,542.5l38.7,186.4L940.6,604
		l-40.1-67l12.8,158.8l-104.4-196l34.8,142.4L684.8,324.2L457.8,661.4l129-342.2c-50.7,94.4-217.9,342-205.4,310
		s106.7-277.7,106.7-277.7S342.9,587.7,348.8,575.1c3.5-7.5,67.1-147.4,118.1-259.5l-268.1,486l111.5-315.7
		c-37.1,53.9-165.2,239.9-163.8,235.3c1.6-5.4,100.9-219.1,100.9-219.1L-24,877.9l296-487.3l73.3,84.6l190.5-328L622,306l73.3-99
		L873,508.2L993.9,376.1z"/>
	
		<image style="overflow:visible;opacity:0.83;enable-background:new    ;" width="231" height="208" id="Blazor" xlink:href="1A2F2CA7.png"  transform="matrix(1 0 0 1 36 20)">
	</image>
	
		<image style="overflow:visible;opacity:0.83;enable-background:new    ;" width="192" height="53" id="MacBook_Desktop" xlink:href="1A2F2CA8.png"  transform="matrix(1 0 0 1 388 621)">
	</image>
	
		<image style="overflow:visible;opacity:0.83;enable-background:new    ;" width="177" height="177" id="Asp.NET_Core" xlink:href="1A2F2CA9.png"  transform="matrix(1 0 0 1 229 160)">
	</image>
	
		<image style="overflow:visible;opacity:0.83;enable-background:new    ;" width="197" height="121" id="NodeJS" xlink:href="1A2F2CAA.png"  transform="matrix(1 0 0 1 1012 57)">
	</image>
	
		<image style="overflow:visible;opacity:0.83;enable-background:new    ;" width="73" height="82" id="React" xlink:href="1A2F2CAB.png"  transform="matrix(1 0 0 1 1154 171)">
	</image>
	
		<image style="overflow:visible;opacity:0.83;enable-background:new    ;" width="179" height="67" id="Samsung" xlink:href="1A2F2CA4.png"  transform="matrix(1 0 0 1 808 615)">
	</image>
	
		<image style="overflow:visible;opacity:0.83;enable-background:new    ;" width="160" height="142" id="Vue" xlink:href="1A2F2CA5.png"  transform="matrix(1 0 0 1 1190 36)">
	</image>
	
		<image style="overflow:visible;opacity:0.83;enable-background:new    ;" width="90" height="92" id="Windows_Desktop" xlink:href="1A2F2CA6.png"  transform="matrix(1 0 0 1 390 465)">
	</image>
	<g id="Windows_Phone" class="st1">
		
			<image style="overflow:visible;opacity:0.83;enable-background:new    ;" width="51" height="51" id="Logo" xlink:href="1A2F2CA3.png"  transform="matrix(1 0 0 1 602 712)">
		</image>
		
			<image style="overflow:visible;opacity:0.83;enable-background:new    ;" width="72" height="22" id="Phones" xlink:href="C8D16FAB.png"  transform="matrix(1 0 0 1 664 741)">
		</image>
		
			<image style="overflow:visible;opacity:0.83;enable-background:new    ;" width="135" height="28" id="Windows" xlink:href="C8D16FA9.png"  transform="matrix(1 0 0 1 661 710)">
		</image>
	</g>
	
		<image style="overflow:visible;opacity:0.83;enable-background:new    ;" width="85" height="101" id="Android" xlink:href="C8D16FAA.png"  transform="matrix(1 0 0 1 645 532)">
	</image>
	
		<image style="overflow:visible;opacity:0.83;enable-background:new    ;" width="92" height="92" id="iPHone" xlink:href="C8D16F96.png"  transform="matrix(1 0 0 1 895 465)">
	</image>
	
		<image style="overflow:visible;opacity:0.83;enable-background:new    ;" width="159" height="168" id="Angular" xlink:href="C8D16F97.png"  transform="matrix(1 0 0 1 946 169)">
	</image>
	
		<linearGradient id="Arrow_5_1_00000155860906776548593110000013221449084356969892_" gradientUnits="userSpaceOnUse" x1="468.499" y1="623.972" x2="468.499" y2="671.03" gradientTransform="matrix(1 0 0 -1 0 798)">
		<stop  offset="0" style="stop-color:#181E26"/>
		<stop  offset="1" style="stop-color:#6386BA"/>
	</linearGradient>
	
		<path id="Arrow_5_1" style="fill-rule:evenodd;clip-rule:evenodd;fill:url(#Arrow_5_1_00000155860906776548593110000013221449084356969892_);" d="
		M539.9,154.6H434.1c5.1,7.6,7.6,12.6,7.9,19.4c-11.6-11.7-26.7-17.8-44.9-23.5c18.2-5.5,32.6-12.2,44.9-23.5
		c-0.8,7.4-2.9,11.8-8.1,19.9h106V154.6L539.9,154.6z"/>
	
		<linearGradient id="Arrow_5_1_copy_00000127026401475614852920000006453733931059048383_" gradientUnits="userSpaceOnUse" x1="522.8295" y1="376.24" x2="522.8295" y2="472.945" gradientTransform="matrix(1 0 0 -1 0 798)">
		<stop  offset="0" style="stop-color:#181E26"/>
		<stop  offset="1" style="stop-color:#6386BA"/>
	</linearGradient>
	
		<path id="Arrow_5_1_copy" style="fill-rule:evenodd;clip-rule:evenodd;fill:url(#Arrow_5_1_copy_00000127026401475614852920000006453733931059048383_);" d="
		M472.7,325.1l80,69.3c1.1-9.1,2.5-14.5,6.7-19.8c1.1,16.4,8.5,30.9,18.5,47.2c-17.4-7.8-32.7-12.2-49.4-11.6
		c5.4-5.1,9.9-7,19.2-9.8l-80.1-69.4L472.7,325.1z"/>
	
		<linearGradient id="arrow-client-side_00000114768019295955821410000015265729630970977686_" gradientUnits="userSpaceOnUse" x1="860.5005" y1="622.97" x2="860.5005" y2="670.028" gradientTransform="matrix(1 0 0 -1 0 798)">
		<stop  offset="0" style="stop-color:#181E26"/>
		<stop  offset="1" style="stop-color:#6386BA"/>
	</linearGradient>
	
		<path id="arrow-client-side" style="fill-rule:evenodd;clip-rule:evenodd;fill:url(#arrow-client-side_00000114768019295955821410000015265729630970977686_);" d="
		M789.1,147.4h105.9c-5.1-7.6-7.6-12.6-7.9-19.4c11.6,11.7,26.7,17.8,44.9,23.5c-18.2,5.5-32.6,12.2-44.9,23.5
		c0.8-7.4,2.9-11.8,8.1-19.9h-106V147.4L789.1,147.4z"/>
	
		<linearGradient id="arrow-client-side_copy_00000175282702470267147930000011338427855514986387_" gradientUnits="userSpaceOnUse" x1="882.447" y1="366.783" x2="882.447" y2="472.244" gradientTransform="matrix(1 0 0 -1 0 798)">
		<stop  offset="0" style="stop-color:#181E26"/>
		<stop  offset="1" style="stop-color:#6386BA"/>
	</linearGradient>
	
		<path id="arrow-client-side_copy" style="fill-rule:evenodd;clip-rule:evenodd;fill:url(#arrow-client-side_copy_00000175282702470267147930000011338427855514986387_);" d="
		M933.5,331.1l-73.4,76.3c9,1.6,14.4,3.2,19.5,7.8c-16.5,0.3-31.3,6.9-48.1,16.1c8.7-16.9,13.8-32,14.2-48.7
		c4.8,5.7,6.5,10.3,8.8,19.6l73.5-76.4L933.5,331.1z"/>
</g>
<g id="Layer_2">
	<g id="jsopx-logo_00000116916730932189296970000006862349181688746131_">
		
			<image style="overflow:visible;opacity:0.75;" width="305" height="304" xlink:href="C8D16F98.png"  transform="matrix(1 0 0 1 513 -8)">
		</image>
		<g>
			<g>
				<g>
					<g>
						<path class="st6" d="M766.8,84.6v118.3c0,7.4-3.9,13.8-9.7,17.2v-14.7c0-0.4,0-0.8-0.1-1.2V200c0-2.3-1.1-4.3-2.8-5.5v-9
							c5.6-2.5,9.5-8.3,9.5-15.1c0-6.7-3.9-12.5-9.5-15.1V146c5.6-2.5,9.5-8.3,9.5-15.1c0-6.7-3.9-12.5-9.5-15.1v-9.3
							c5.6-2.5,9.5-8.3,9.5-15.1c0-9.1-7.1-16.4-15.8-16.4c-3.3,0-6.4,1.1-8.9,2.9H592.6c-2.5-1.8-5.6-2.9-8.9-2.9
							c-8.7,0-15.8,7.4-15.8,16.4c0,6.7,3.9,12.5,9.5,15.1v9.3c-5.6,2.5-9.5,8.3-9.5,15.1c0,6.7,3.9,12.5,9.5,15.1v9.3
							c-5.6,2.5-9.5,8.3-9.5,15.1c0,6.7,3.9,12.5,9.5,15.1v9c-1.7,1.2-2.8,3.2-2.8,5.5v0.7c-3.5,1.8-3.5,6.4-3.5,6.4v10.5
							c-3.9-3.6-6.3-8.9-6.3-14.7V84.6c0-10.6,8-19.2,18.1-19.7l131.9-21c12-3.1,33.1,8.1,33.1,21C758.3,64.8,766.8,73.7,766.8,84.6
							z M728.9,64.8v-2.9c0-4.3-16.5-2.7-20.5-1.6L635,64.8H728.9z"/>
						<path class="st7" d="M763.6,91.5c0,6.7-3.9,12.5-9.5,15.1v9.3c5.6,2.5,9.5,8.3,9.5,15.1c0,6.7-3.9,12.5-9.5,15.1v9.3
							c5.6,2.5,9.5,8.3,9.5,15.1c0,6.7-3.9,12.5-9.5,15.1v9c1.7,1.2,2.8,3.2,2.8,5.5v4.2c-0.5-2.4-2.5-4.2-4.9-4.2h-36.9
							c-2.8,0-5,2.4-5,5.3v4.9c-0.7-0.8-1.5-1.5-2.6-1.9l-35-14.4c-3.2-1.3-6.8,0.2-8.1,3.5l-7.5,19.8l4-20.7
							c0.7-3.7-1.6-7.4-5.2-8.1l-19.5-4.1c-3.6-0.7-7.1,1.7-7.8,5.4l-3.7,19.5v-1.9c0-7.1-6.7-7.1-6.7-7.1h-40.2
							c-1.3,0-2.4,0.3-3.2,0.7V200c0-2.3,1.1-4.3,2.8-5.5v-9c-5.6-2.5-9.5-8.3-9.5-15.1c0-6.7,3.9-12.5,9.5-15.1V146
							c-5.6-2.5-9.5-8.3-9.5-15.1c0-6.7,3.9-12.5,9.5-15.1v-9.3c-5.6-2.5-9.5-8.3-9.5-15.1c0-9.1,7.1-16.4,15.8-16.4
							c3.3,0,6.4,1.1,8.9,2.9h146.3c2.5-1.8,5.6-2.9,8.9-2.9C756.6,75.1,763.6,82.4,763.6,91.5z M760.5,91.5
							c0-7.3-5.7-13.1-12.6-13.1c-7,0-12.6,5.9-12.6,13.1c0,7.3,5.7,13.1,12.6,13.1C754.8,104.7,760.5,98.8,760.5,91.5z M760.5,131
							c0-7.3-5.7-13.1-12.6-13.1c-7,0-12.6,5.9-12.6,13.1c0,7.3,5.7,13.1,12.6,13.1C754.8,144.1,760.5,138.2,760.5,131z
							 M760.5,170.4c0-7.3-5.7-13.1-12.6-13.1c-7,0-12.6,5.9-12.6,13.1c0,7.3,5.7,13.1,12.6,13.1
							C754.8,183.5,760.5,177.7,760.5,170.4z M710.5,117.8h19.4c0-5.3-1.3-9.9-3.9-13.8c-2.6-3.9-6.1-7-10.7-9.1
							c-4.5-2.2-9.7-3.2-15.7-3.2c-4.5,0-8.6,0.6-12.4,1.7c-3.8,1.1-7.1,2.7-9.9,4.7c-2.8,2-4.9,4.5-6.5,7.5
							c-1.6,2.9-2.3,6.1-2.3,9.8c0,3.8,0.8,7.1,2.3,9.9c1.5,2.8,3.6,5.3,6.2,7.4c2.6,2.1,5.5,3.9,8.8,5.5c3.3,1.5,6.7,2.9,10.3,4.2
							c3,1,5.5,2,7.3,3c1.9,0.9,3.3,1.8,4.3,2.8c1,0.9,1.7,1.9,2.1,3c0.4,1,0.6,2.2,0.6,3.5c0,1.5-0.4,2.9-1.1,4.2
							c-0.7,1.2-1.8,2.2-3.3,3c-1.5,0.7-3.5,1.1-6,1.1c-2.3,0-4.3-0.2-6.1-0.6c-1.8-0.5-3.3-1.2-4.5-2.2c-1.2-1-2.1-2.4-2.8-4.1
							s-0.9-3.8-0.9-6.2h-19.5c0,5,1,9.3,2.9,12.9c2,3.6,4.6,6.5,7.8,8.8c3.3,2.3,6.9,4,10.9,5.1c4,1.1,8.1,1.6,12.3,1.6
							c4.5,0,8.6-0.5,12.3-1.6c3.7-1,6.8-2.6,9.4-4.6c2.6-2,4.6-4.5,6-7.5c1.4-2.9,2.1-6.3,2.1-10.1c0-3.5-0.6-6.7-1.8-9.5
							c-1.2-2.8-2.9-5.3-5.3-7.5c-2.3-2.2-5.1-4.2-8.5-5.9c-3.3-1.8-7.1-3.4-11.4-4.8c-2.3-0.8-4.4-1.6-6.2-2.4
							c-1.8-0.8-3.4-1.7-4.7-2.5c-1.3-0.9-2.2-1.8-2.9-2.8c-0.7-1-1-2.2-1-3.5c0-1.5,0.4-2.9,1.3-4.2c0.8-1.3,2.1-2.4,3.8-3.1
							c1.7-0.8,3.7-1.2,6.2-1.2c2.5,0,4.6,0.5,6.3,1.4s2.9,2.2,3.7,3.8C710,113.8,710.5,115.7,710.5,117.8z M656.4,150.6V92.9h-19.4
							v57.7c0,2.5-0.3,4.7-1,6.5c-0.7,1.8-1.6,3.1-2.9,4.1c-1.2,0.9-2.7,1.4-4.5,1.4c-1.8,0-3.3-0.3-4.6-0.9
							c-1.2-0.7-2.1-1.8-2.8-3.4c-0.6-1.6-0.9-3.8-0.9-6.7h-19.5c0,6.1,1.2,11.1,3.6,15c2.4,3.9,5.7,6.8,9.9,8.7
							c4.2,1.9,9,2.8,14.4,2.8c5.2,0,9.9-1.1,14.1-3.3c4.2-2.3,7.5-5.5,10-9.6C655.1,161.1,656.4,156.2,656.4,150.6z M596.3,91.5
							c0-7.3-5.7-13.1-12.6-13.1c-7,0-12.6,5.9-12.6,13.1c0,7.3,5.7,13.1,12.6,13.1C590.7,104.7,596.3,98.8,596.3,91.5z
							 M596.3,170.4c0-7.3-5.7-13.1-12.6-13.1c-7,0-12.6,5.9-12.6,13.1c0,7.3,5.7,13.1,12.6,13.1
							C590.7,183.5,596.3,177.7,596.3,170.4z M596.2,130.5c0-7.4-5.8-13.4-12.9-13.4c-7.1,0-12.9,6-12.9,13.4s5.8,13.4,12.9,13.4
							C590.4,143.9,596.2,137.9,596.2,130.5z"/>
						<path class="st6" d="M706.8,237.4h53.7c0,3-2.3,5.3-5,5.3h-43.6C709,242.7,706.8,240.3,706.8,237.4z"/>
						<path class="st6" d="M747.8,78.4c7,0,12.6,5.9,12.6,13.1c0,7.3-5.7,13.1-12.6,13.1c-7,0-12.6-5.9-12.6-13.1
							C735.2,84.3,740.9,78.4,747.8,78.4z M754.4,91.6v-0.3c0-1-0.1-2-0.4-2.8c-0.3-0.9-0.7-1.6-1.2-2.2c-0.5-0.6-1.2-1.1-2-1.5
							c-0.8-0.4-1.7-0.5-2.8-0.5c-1,0-2,0.2-2.8,0.5c-0.8,0.4-1.5,0.8-2,1.5c-0.5,0.6-1,1.4-1.2,2.2c-0.3,0.9-0.4,1.8-0.4,2.8v0.3
							c0,1,0.1,1.9,0.4,2.8c0.3,0.9,0.7,1.6,1.2,2.2c0.5,0.6,1.2,1.1,2,1.5c0.8,0.4,1.7,0.5,2.8,0.5c1,0,2-0.2,2.8-0.5
							c0.8-0.3,1.5-0.8,2-1.5c0.5-0.6,1-1.4,1.2-2.2C754.3,93.6,754.4,92.6,754.4,91.6z"/>
						<path class="st6" d="M747.8,117.8c7,0,12.6,5.9,12.6,13.1c0,7.3-5.7,13.1-12.6,13.1c-7,0-12.6-5.9-12.6-13.1
							C735.2,123.7,740.9,117.8,747.8,117.8z M753.7,128.9v-0.2c0-0.9-0.1-1.8-0.3-2.5c-0.2-0.8-0.5-1.4-0.9-1.9
							c-0.4-0.5-0.9-1-1.4-1.3c-0.6-0.3-1.2-0.4-2-0.4c-0.7,0-1.3,0.2-1.8,0.5c-0.4,0.2-0.7,0.5-0.9,0.9l-0.1-1.1h-3.4v16.8h3.6
							v-5.7c0.2,0.3,0.5,0.5,0.8,0.7c0.5,0.3,1.1,0.5,1.8,0.5c0.7,0,1.4-0.2,2-0.5c0.6-0.3,1-0.8,1.4-1.3c0.4-0.6,0.7-1.2,0.9-2
							C753.6,130.6,753.7,129.8,753.7,128.9z"/>
						<path class="st6" d="M747.8,157.3c7,0,12.6,5.9,12.6,13.1c0,7.3-5.7,13.1-12.6,13.1c-7,0-12.6-5.9-12.6-13.1
							C735.2,163.1,740.9,157.3,747.8,157.3z M754.9,178.6l-4.5-8.2l4.4-8.1h-4.3l-2.6,5.4l-2.6-5.4H741l4.4,8.1l-4.5,8.2h4.4
							l2.6-5.5l2.6,5.5H754.9z"/>
						<path class="st6" d="M757.1,220.1v15.5h-47v-16.3l1-2.7c0.8-2.2,0.4-4.6-1-6.3v-4.9c0-2.9,2.2-5.3,5-5.3h36.9
							c2.4,0,4.4,1.8,4.9,4.2v15.5c0,0.2,0,0.3,0,0.5C757,220.1,757.1,220.1,757.1,220.1z M753.8,232v-26.7c0-1-0.8-1.8-1.7-1.8
							h-36.9c-0.9,0-1.7,0.8-1.7,1.8V232H753.8z"/>
						<path class="st6" d="M757.1,205.3v14.7c0,0-0.1,0.1-0.1,0.1c0-0.2,0-0.3,0-0.5v-15.5C757.1,204.5,757.1,204.9,757.1,205.3z"/>
						<polygon class="st7" points="750.4,170.4 754.9,178.6 750.6,178.6 747.9,173.1 745.3,178.6 740.9,178.6 745.4,170.4 
							741,162.3 745.4,162.3 747.9,167.7 750.5,162.3 754.8,162.3 						"/>
						<path class="st7" d="M754.4,91.4v0.3c0,1-0.1,1.9-0.4,2.8c-0.3,0.9-0.7,1.6-1.2,2.2c-0.5,0.6-1.2,1.1-2,1.5
							c-0.8,0.4-1.7,0.5-2.8,0.5c-1,0-2-0.2-2.8-0.5c-0.8-0.3-1.5-0.8-2-1.5c-0.5-0.6-1-1.4-1.2-2.2c-0.3-0.9-0.4-1.8-0.4-2.8v-0.3
							c0-1,0.1-2,0.4-2.8c0.3-0.9,0.7-1.6,1.2-2.2c0.5-0.6,1.2-1.1,2-1.5c0.8-0.4,1.7-0.5,2.8-0.5c1.1,0,2,0.2,2.8,0.5
							c0.8,0.4,1.5,0.8,2,1.5c0.5,0.6,1,1.4,1.2,2.2C754.3,89.4,754.4,90.3,754.4,91.4z M750.3,91.6v-0.3c0-0.5,0-1-0.1-1.4
							c-0.1-0.5-0.2-0.9-0.4-1.2c-0.2-0.3-0.4-0.6-0.7-0.8c-0.3-0.2-0.7-0.3-1.1-0.3c-0.4,0-0.8,0.1-1.1,0.3
							c-0.3,0.2-0.5,0.5-0.7,0.8c-0.2,0.3-0.3,0.7-0.4,1.2c-0.1,0.4-0.1,0.9-0.1,1.4v0.3c0,0.5,0,1,0.1,1.5c0.1,0.5,0.2,0.9,0.4,1.2
							c0.2,0.3,0.4,0.6,0.7,0.8c0.3,0.2,0.7,0.3,1.1,0.3c0.4,0,0.8-0.1,1.1-0.3c0.3-0.2,0.5-0.5,0.7-0.8c0.2-0.3,0.3-0.7,0.4-1.2
							C750.2,92.6,750.3,92.1,750.3,91.6z"/>
						<path class="st7" d="M753.8,205.3V232h-40.2v-26.7c0-1,0.7-1.8,1.7-1.8h36.9C753,203.5,753.8,204.3,753.8,205.3z"/>
						<path class="st7" d="M753.7,128.7v0.2c0,0.9-0.1,1.7-0.3,2.5c-0.2,0.8-0.5,1.4-0.9,2c-0.4,0.6-0.9,1-1.4,1.3
							c-0.6,0.3-1.2,0.5-2,0.5c-0.7,0-1.3-0.2-1.8-0.5c-0.3-0.2-0.6-0.4-0.8-0.7v5.7h-3.6v-16.8h3.4l0.1,1.1
							c0.3-0.4,0.6-0.6,0.9-0.9c0.5-0.3,1.1-0.5,1.8-0.5c0.7,0,1.4,0.1,2,0.4c0.6,0.3,1,0.7,1.4,1.3c0.4,0.5,0.7,1.2,0.9,1.9
							C753.6,126.9,753.7,127.8,753.7,128.7z M750.1,128.9v-0.2c0-0.5,0-0.9-0.1-1.3c-0.1-0.4-0.2-0.7-0.3-1
							c-0.1-0.3-0.3-0.5-0.5-0.7c-0.2-0.2-0.5-0.2-0.9-0.2c-0.4,0-0.7,0.1-1,0.2c-0.3,0.1-0.5,0.3-0.6,0.6c0,0.1-0.1,0.1-0.1,0.2
							v4.8c0.1,0.3,0.3,0.5,0.5,0.7c0.3,0.2,0.7,0.4,1.2,0.4c0.3,0,0.6-0.1,0.9-0.2c0.2-0.2,0.4-0.4,0.6-0.7
							c0.1-0.3,0.2-0.7,0.3-1.1C750,129.8,750.1,129.4,750.1,128.9z"/>
						<path class="st6" d="M750.3,91.4v0.3c0,0.5,0,1-0.1,1.5c-0.1,0.5-0.2,0.9-0.4,1.2c-0.2,0.3-0.4,0.6-0.7,0.8
							c-0.3,0.2-0.7,0.3-1.1,0.3c-0.4,0-0.8-0.1-1.1-0.3c-0.3-0.2-0.5-0.5-0.7-0.8c-0.2-0.3-0.3-0.7-0.4-1.2
							c-0.1-0.5-0.1-0.9-0.1-1.5v-0.3c0-0.5,0-1,0.1-1.4c0.1-0.5,0.2-0.9,0.4-1.2c0.2-0.3,0.4-0.6,0.7-0.8c0.3-0.2,0.7-0.3,1.1-0.3
							c0.4,0,0.8,0.1,1.1,0.3c0.3,0.2,0.5,0.5,0.7,0.8c0.2,0.3,0.3,0.7,0.4,1.2C750.2,90.4,750.3,90.8,750.3,91.4z"/>
						<path class="st6" d="M750.1,128.7v0.2c0,0.5,0,0.9-0.1,1.3c-0.1,0.4-0.2,0.7-0.3,1.1c-0.1,0.3-0.3,0.5-0.6,0.7
							c-0.2,0.2-0.5,0.2-0.9,0.2c-0.5,0-0.9-0.1-1.2-0.4c-0.2-0.2-0.4-0.4-0.5-0.7v-4.8c0-0.1,0.1-0.1,0.1-0.2
							c0.2-0.3,0.4-0.4,0.6-0.6c0.3-0.1,0.6-0.2,1-0.2c0.3,0,0.6,0.1,0.9,0.2c0.2,0.2,0.4,0.4,0.5,0.7c0.1,0.3,0.3,0.6,0.3,1
							C750,127.8,750.1,128.2,750.1,128.7z"/>
						<path class="st6" d="M729.8,117.8h-19.4c0-2.1-0.4-4-1.3-5.6c-0.8-1.6-2.1-2.9-3.7-3.8s-3.8-1.4-6.3-1.4
							c-2.4,0-4.5,0.4-6.2,1.2c-1.7,0.8-2.9,1.8-3.8,3.1c-0.9,1.3-1.3,2.7-1.3,4.2c0,1.3,0.3,2.4,1,3.5c0.7,1,1.7,1.9,2.9,2.8
							c1.3,0.9,2.9,1.7,4.7,2.5c1.8,0.8,3.9,1.6,6.2,2.4c4.3,1.4,8.1,3,11.4,4.8c3.4,1.7,6.2,3.7,8.5,5.9c2.3,2.2,4.1,4.7,5.3,7.5
							c1.2,2.8,1.8,6,1.8,9.5c0,3.8-0.7,7.1-2.1,10.1c-1.4,2.9-3.4,5.4-6,7.5c-2.6,2-5.8,3.5-9.4,4.6c-3.7,1-7.8,1.6-12.3,1.6
							c-4.1,0-8.2-0.5-12.3-1.6c-4-1.1-7.6-2.8-10.9-5.1c-3.3-2.3-5.9-5.3-7.8-8.8c-1.9-3.6-2.9-7.9-2.9-12.9h19.5
							c0,2.5,0.3,4.5,0.9,6.2s1.6,3.1,2.8,4.1c1.2,1,2.7,1.7,4.5,2.2c1.8,0.4,3.8,0.6,6.1,0.6c2.5,0,4.5-0.4,6-1.1
							c1.5-0.8,2.6-1.8,3.3-3c0.7-1.3,1.1-2.7,1.1-4.2c0-1.3-0.2-2.5-0.6-3.5c-0.4-1.1-1.1-2.1-2.1-3c-1-0.9-2.4-1.8-4.3-2.8
							c-1.8-1-4.3-2-7.3-3c-3.6-1.2-7-2.6-10.3-4.2c-3.3-1.6-6.2-3.4-8.8-5.5c-2.6-2.1-4.6-4.6-6.2-7.4c-1.5-2.8-2.3-6.2-2.3-9.9
							c0-3.6,0.8-6.9,2.3-9.8c1.6-2.9,3.7-5.4,6.5-7.5c2.8-2.1,6.1-3.7,9.9-4.7c3.8-1.1,7.9-1.7,12.4-1.7c5.9,0,11.1,1.1,15.7,3.2
							c4.5,2.1,8.1,5.1,10.7,9.1C728.5,107.9,729.8,112.5,729.8,117.8z"/>
						<path class="st6" d="M710.2,210.2c1.4,1.7,1.9,4.1,1,6.3l-1,2.7V210.2z"/>
						<path class="st6" d="M710.2,210.2v9l-7.9,20.8c-1.2,3.3-4.8,4.8-8.1,3.5l-35-14.4c-1.8-0.8-3.1-2.3-3.7-4l1.5-8l7.5-19.8
							c1.2-3.2,4.8-4.8,8.1-3.5l35,14.4C708.6,208.7,709.5,209.4,710.2,210.2z M708.3,215.4c0.6-1.6-0.2-3.5-1.8-4.1l-35-14.4
							c-1.6-0.7-3.4,0.1-4,1.7l-8.9,23.5c-0.6,1.6,0.2,3.5,1.8,4.1l35,14.4c1.6,0.7,3.4-0.1,4-1.7L708.3,215.4z"/>
						<path class="st7" d="M706.5,211.2c1.6,0.7,2.4,2.5,1.8,4.1l-8.9,23.5c-0.6,1.6-2.4,2.4-4,1.7l-35-14.4
							c-1.6-0.7-2.4-2.5-1.8-4.1l8.9-23.5c0.6-1.6,2.4-2.4,4-1.7L706.5,211.2z M700.9,225.9c0.6-1.6-0.2-3.5-1.8-4.1
							c-1.6-0.7-3.4,0.1-4,1.7c-0.6,1.6,0.2,3.5,1.8,4.1C698.5,228.3,700.3,227.5,700.9,225.9z"/>
						<path class="st6" d="M699.1,221.8c1.6,0.7,2.4,2.5,1.8,4.1c-0.6,1.6-2.4,2.4-4,1.7c-1.6-0.7-2.4-2.5-1.8-4.1
							C695.7,221.9,697.5,221.1,699.1,221.8z"/>
						<path class="st6" d="M655.8,188.2c3.6,0.8,5.9,4.4,5.2,8.1l-4,20.7l-1.4,3.8c-0.5,1.4-0.5,2.9-0.1,4.2l-2.3,12
							c-0.7,3.7-4.2,6.2-7.8,5.4l-19.5-4.1c-2-0.4-3.7-1.8-4.6-3.6c1.3-0.7,2.1-1.7,2.6-2.8c0.2,1.4,1.2,2.7,2.6,3l19.5,4.1
							c1.8,0.4,3.6-0.8,3.9-2.7l7.8-40.7c0.4-1.9-0.8-3.7-2.6-4.1l-19.5-4.1c-1.8-0.4-3.6,0.8-3.9,2.7l-7,36.4V209l3.7-19.5
							c0.7-3.7,4.2-6.2,7.8-5.4L655.8,188.2z"/>
						<path class="st7" d="M655.2,191.6c1.8,0.4,3,2.2,2.6,4.1l-7.8,40.7c-0.4,1.9-2.1,3.1-3.9,2.7l-19.5-4.1
							c-1.4-0.3-2.5-1.5-2.6-3c0.9-1.8,0.9-3.6,0.9-3.6v-1.8l7-36.4c0.4-1.9,2.1-3.1,3.9-2.7L655.2,191.6z M640.8,231
							c0.4-1.9-0.8-3.7-2.6-4.1c-1.8-0.4-3.5,0.8-3.9,2.7c-0.4,1.9,0.8,3.7,2.6,4.1C638.7,234,640.5,232.8,640.8,231z"/>
						<path class="st6" d="M657.1,217.1l-1.5,8c-0.4-1.3-0.4-2.8,0.1-4.2L657.1,217.1z"/>
						<path class="st6" d="M656.4,92.9v57.7c0,5.6-1.2,10.5-3.7,14.6c-2.4,4.1-5.8,7.3-10,9.6c-4.2,2.2-8.9,3.3-14.1,3.3
							c-5.4,0-10.2-0.9-14.4-2.8c-4.2-1.9-7.5-4.8-9.9-8.7c-2.4-3.9-3.6-8.9-3.6-15h19.5c0,2.8,0.3,5.1,0.9,6.7
							c0.6,1.6,1.6,2.7,2.8,3.4c1.3,0.6,2.8,0.9,4.6,0.9c1.8,0,3.3-0.5,4.5-1.4c1.3-1,2.2-2.3,2.9-4.1c0.7-1.8,1-4,1-6.5V92.9H656.4
							z"/>
						<path class="st6" d="M638.2,226.9c1.8,0.4,3,2.2,2.6,4.1c-0.4,1.9-2.1,3.1-3.9,2.7c-1.8-0.4-3-2.2-2.6-4.1
							C634.7,227.7,636.4,226.5,638.2,226.9z"/>
						<path class="st6" d="M624.7,226.6v1.8c0,0,0,1.8-0.9,3.6c0-0.4,0-0.7,0-1.1L624.7,226.6z"/>
						<path class="st6" d="M624.7,209v17.6l-0.8,4.3c-0.1,0.4-0.1,0.8,0,1.1c-0.5,1.1-1.3,2.1-2.6,2.8c-0.6-1.1-0.9-2.5-0.7-3.8
							c0.1-0.2,0.3-0.4,0.4-0.6c0.2-0.5,0.4-1,0.4-1.4c0-0.2,0-0.4,0.1-0.5c0,0,0-0.1,0-0.1v-2L624.7,209z"/>
						<path class="st6" d="M624.7,207.1v1.9l-3.4,17.4v-19.4c0-1.2-0.3-1.8-0.5-2.1c-0.2-0.4-0.6-0.7-1-0.9
							c-0.5-0.2-0.9-0.4-1.4-0.5c-0.2,0-0.4,0-0.4-0.1c0,0-0.1,0-0.1,0h-40.2c-1.1,0-1.7,0.3-2,0.5c-0.4,0.3-0.6,0.6-0.9,1.1
							c-0.2,0.4-0.3,0.8-0.4,1.1v-5.6c0.9-0.4,1.9-0.7,3.2-0.7H618C618,200,624.7,200,624.7,207.1z"/>
						<path class="st6" d="M621.4,226.4v2c0,0,0,0,0,0.1c0,0.1,0,0.3-0.1,0.5c-0.1,0.4-0.2,1-0.4,1.4c-0.1,0.2-0.2,0.4-0.4,0.6
							c0-0.2,0.1-0.5,0.1-0.7L621.4,226.4z"/>
						<path class="st7" d="M621.4,207.1v19.4l-0.7,3.8c0,0.2-0.1,0.5-0.1,0.7c-0.1,0.2-0.3,0.4-0.5,0.5c-0.3,0.2-0.9,0.5-2,0.5
							h-40.2c0,0,0,0-0.1,0c-0.1,0-0.2,0-0.4-0.1c-0.4-0.1-0.9-0.2-1.4-0.5c-0.4-0.2-0.8-0.5-1-0.9c-0.2-0.4-0.5-1-0.5-2.1v-8.4
							c0,0,0.1,0.1,0.1,0.1c0-0.2,0-0.3,0-0.5v-13.4c0.1-0.4,0.2-0.8,0.4-1.1c0.2-0.5,0.5-0.8,0.9-1.1c0.3-0.2,0.9-0.5,2-0.5H618
							c0,0,0,0,0.1,0c0.1,0,0.3,0,0.4,0.1c0.4,0.1,0.9,0.2,1.4,0.5c0.4,0.2,0.8,0.5,1,0.9C621.1,205.3,621.4,205.9,621.4,207.1z"/>
						<path class="st6" d="M620.5,231c-0.1,1.4,0.2,2.7,0.7,3.8c-0.9,0.4-1.9,0.7-3.2,0.7h-13.4c0,2.4,0.3,4.2,0.8,5.3h2.5
							c0.9,0,1.7,0.8,1.7,1.8h-23.5c0-1,0.7-1.8,1.7-1.8h2.5c0.6-1.2,0.8-3,0.8-5.3h-13.4c0,0-6.7,0-6.7-7.1v-10.9
							c1,1,2.1,1.8,3.4,2.5v8.4c0,1.2,0.3,1.8,0.5,2.1c0.2,0.4,0.6,0.7,1,0.9c0.5,0.2,1,0.4,1.4,0.5c0.2,0,0.4,0,0.4,0.1
							c0,0,0.1,0,0.1,0H618c1.1,0,1.7-0.3,2-0.5C620.2,231.4,620.4,231.2,620.5,231z"/>
						<path class="st7" d="M593.5,130c0.3,0.3,0.3,0.7,0,1l-4.9,5c-0.3,0.3-0.7,0.3-1,0c-0.3-0.3-0.3-0.7,0-1l4.4-4.5l-4.4-4.5
							c-0.3-0.3-0.3-0.7,0-1c0.3-0.3,0.7-0.3,1,0L593.5,130z"/>
						<path class="st6" d="M583.7,78.4c7,0,12.6,5.9,12.6,13.1c0,7.3-5.7,13.1-12.6,13.1c-7,0-12.6-5.9-12.6-13.1
							C571.1,84.3,576.7,78.4,583.7,78.4z M590.8,91.5c0-0.3,0-0.7-0.1-1l-4.7,1.8l2,5C589.7,96,590.8,93.9,590.8,91.5z M582.9,89.1
							l6-2.5c-1.3-1.5-3.2-2.4-5.2-2.4c-3.9,0-7.1,3.3-7.1,7.4c0,0.9,0.2,1.8,0.5,2.6l-3.1,2.7c1,2.1,2.7,3.8,4.7,4.9l2.6-3.3
							c0.8,0.3,1.6,0.5,2.5,0.5c1,0,2-0.2,2.9-0.6l-2.1-5.1L582.9,89.1z"/>
						<path class="st6" d="M583.7,157.3c7,0,12.6,5.9,12.6,13.1c0,7.3-5.7,13.1-12.6,13.1c-7,0-12.6-5.9-12.6-13.1
							C571.1,163.1,576.7,157.3,583.7,157.3z M590.4,175.7v-5.4c0-1.4-1-2.4-2.2-2.8v-2.4c0-2.5-1.9-4.5-4.3-4.5s-4.3,2-4.3,4.5v2.4
							c-1.2,0.4-2.2,1.4-2.2,2.8v5.4c0,1.8,1.7,2.9,3.3,2.9h6.5C588.7,178.6,590.4,177.5,590.4,175.7z"/>
						<path class="st6" d="M583.2,117.1c7.1,0,12.9,6,12.9,13.4s-5.8,13.4-12.9,13.4c-7.1,0-12.9-6-12.9-13.4
							S576.1,117.1,583.2,117.1z M593.5,131c0.3-0.3,0.3-0.7,0-1l-4.9-5c-0.3-0.3-0.7-0.3-1,0c-0.3,0.3-0.3,0.7,0,1l4.4,4.5
							l-4.4,4.5c-0.3,0.3-0.3,0.7,0,1c0.3,0.3,0.7,0.3,1,0L593.5,131z M586.7,121.3c0.1-0.4-0.1-0.8-0.5-0.9
							c-0.4-0.1-0.8,0.1-0.9,0.5l-5.6,18.7c-0.1,0.4,0.1,0.8,0.5,0.9c0.4,0.1,0.8-0.1,0.9-0.5L586.7,121.3z M578.8,126
							c0.3-0.3,0.3-0.7,0-1c-0.3-0.3-0.7-0.3-1,0l-4.9,5c-0.3,0.3-0.3,0.7,0,1l4.9,5c0.3,0.3,0.7,0.3,1,0c0.3-0.3,0.3-0.7,0-1
							l-4.4-4.5L578.8,126z"/>
						<path class="st7" d="M590.7,90.5c0,0.3,0.1,0.7,0.1,1c0,2.4-1.1,4.4-2.7,5.8l-2-5L590.7,90.5z"/>
						<path class="st7" d="M590.4,170.3v5.4c0,1.8-1.7,2.9-3.3,2.9h-6.5c-1.6,0-3.3-1.1-3.3-2.9v-5.4c0-1.4,1-2.4,2.2-2.8v-2.4
							c0-2.5,1.9-4.5,4.3-4.5s4.3,2,4.3,4.5v2.4C589.4,167.9,590.4,168.8,590.4,170.3z M586,167.3v-2.3c0-1.2-1-2.3-2.2-2.3
							s-2.2,1-2.2,2.3v2.3H586z"/>
						<path class="st7" d="M588.9,86.5l-6,2.5l1.6,4.1l2.1,5.1c-0.9,0.4-1.9,0.6-2.9,0.6c-0.9,0-1.7-0.2-2.5-0.5l-2.6,3.3
							c-2-1.1-3.6-2.8-4.7-4.9l3.1-2.7c-0.3-0.8-0.5-1.7-0.5-2.6c0-4.1,3.2-7.4,7.1-7.4C585.8,84.1,587.6,85.1,588.9,86.5z
							 M583,95.2l-0.3-0.8l-1.3,0.4l0.9-1.5c0.1-0.1,0.1-0.3,0-0.5c-0.1-0.1-0.3-0.2-0.4-0.1l-1.3,0.4l0.9-1.5
							c0.1-0.1,0.1-0.3,0-0.5c-0.1-0.1-0.3-0.2-0.4-0.1l-2.4,0.8l0.3,0.8l1.3-0.4l-0.9,1.5c-0.1,0.1-0.1,0.3,0,0.5
							c0.1,0.1,0.3,0.2,0.4,0.1l1.3-0.4l-0.9,1.5c-0.1,0.1-0.1,0.3,0,0.5c0.1,0.1,0.3,0.2,0.4,0.1L583,95.2z"/>
						<path class="st7" d="M586.2,120.4c0.4,0.1,0.6,0.5,0.5,0.9l-5.6,18.7c-0.1,0.4-0.5,0.6-0.9,0.5c-0.4-0.1-0.6-0.5-0.5-0.9
							l5.6-18.7C585.5,120.5,585.9,120.3,586.2,120.4z"/>
						<path class="st6" d="M586,165.1v2.3h-4.3v-2.3c0-1.2,1-2.3,2.2-2.3S586,163.8,586,165.1z"/>
						<path class="st6" d="M582.8,94.4l0.3,0.8l-2.4,0.8c-0.2,0.1-0.3,0-0.4-0.1c-0.1-0.1-0.1-0.3,0-0.5l0.9-1.5l-1.3,0.4
							c-0.2,0.1-0.3,0-0.4-0.1c-0.1-0.1-0.1-0.3,0-0.5l0.9-1.5l-1.3,0.4l-0.3-0.8l2.4-0.8c0.2-0.1,0.3,0,0.4,0.1
							c0.1,0.1,0.1,0.3,0,0.5l-0.9,1.5l1.3-0.4c0.2-0.1,0.3,0,0.4,0.1c0.1,0.1,0.1,0.3,0,0.5l-0.9,1.5L582.8,94.4z"/>
						<path class="st7" d="M578.8,124.9c0.3,0.3,0.3,0.7,0,1l-4.4,4.5l4.4,4.5c0.3,0.3,0.3,0.7,0,1c-0.3,0.3-0.7,0.3-1,0l-4.9-5
							c-0.3-0.3-0.3-0.7,0-1l4.9-5C578.1,124.7,578.6,124.7,578.8,124.9z"/>
						<path class="st6" d="M574.5,219.7c0,0.2,0,0.3,0,0.5c0,0-0.1-0.1-0.1-0.1v-12.9c0,0,0,0,0-0.1c0-0.1,0-0.3,0.1-0.5
							c0-0.1,0-0.2,0.1-0.3V219.7z"/>
						<path class="st6" d="M574.5,200.7v5.6c0,0.1,0,0.2-0.1,0.3c0,0.2,0,0.4-0.1,0.5c0,0,0,0.1,0,0.1v12.9
							c-1.2-0.7-2.3-1.5-3.4-2.5v-10.5C571.1,207.1,571.1,202.5,574.5,200.7z"/>
					</g>
				</g>
			</g>
		</g>
	</g>
</g>
</svg>
