<?xml version="1.0" encoding="utf-8"?>
<!-- Generator: Adobe Illustrator 27.0.0, SVG Export Plug-In . SVG Version: 6.00 Build 0)  -->
<svg version="1.1" xmlns="http://www.w3.org/2000/svg" xmlns:xlink="http://www.w3.org/1999/xlink" x="0px" y="0px"
	 viewBox="0 0 1391 798" style="enable-background:new 0 0 1391 798;" xml:space="preserve">
<style type="text/css">
	.st0{opacity:0.16;fill-rule:evenodd;clip-rule:evenodd;fill:#6E6E6E;stroke:#236C9C;enable-background:new    ;}
	.st1{opacity:0.83;}
	.st2{fill-rule:evenodd;clip-rule:evenodd;fill:url(#Arrow_5_1_00000044154339526302090150000006492309379260735926_);}
	.st3{fill-rule:evenodd;clip-rule:evenodd;fill:url(#Arrow_5_1_copy_00000054228546475244619230000016773979550501512081_);}
	.st4{fill-rule:evenodd;clip-rule:evenodd;fill:url(#arrow-client-side_00000096021313258518278400000016621759814829859987_);}
	
		.st5{fill-rule:evenodd;clip-rule:evenodd;fill:url(#arrow-client-side_copy_00000148622942397519762800000018284638497487552660_);}
	.st6{fill:#FDEADF;}
	.st7{fill:#384EA0;}
</style>
<g id="Layer_1">
	<path id="Shape_85_1" class="st0" d="M1143.9,356.1L1465,857.9l-317.4-444l113.7,348.2l-134.1-239.6l38.7,186.4L1090.6,584
		l-40.1-67l12.8,158.8l-104.4-196l34.8,142.4L834.8,304.2L607.8,641.4l129-342.2c-50.7,94.4-217.9,342-205.4,310
		s106.7-277.7,106.7-277.7S492.9,567.7,498.8,555.1c3.5-7.5,67.1-147.4,118.1-259.5l-268.1,486l111.5-315.7
		c-37.1,53.9-165.2,239.9-163.8,235.3c1.6-5.4,100.9-219.1,100.9-219.1L126,857.9l296-487.3l73.3,84.6l190.5-328L772,286l73.3-99
		L1023,488.2L1143.9,356.1z"/>
	<path id="Shape_85_1_copy" class="st0" d="M993.9,376.1L1315,877.9l-317.5-444l113.7,348.2L977.2,542.5l38.7,186.4L940.6,604
		l-40.1-67l12.8,158.8l-104.4-196l34.8,142.4L684.8,324.2L457.8,661.4l129-342.2c-50.7,94.4-217.9,342-205.4,310
		s106.7-277.7,106.7-277.7S342.9,587.7,348.8,575.1c3.5-7.5,67.1-147.4,118.1-259.5l-268.1,486l111.5-315.7
		c-37.1,53.9-165.2,239.9-163.8,235.3c1.6-5.4,100.9-219.1,100.9-219.1L-24,877.9l296-487.3l73.3,84.6l190.5-328L622,306l73.3-99
		L873,508.2L993.9,376.1z"/>
	
		<image style="overflow:visible;opacity:0.83;enable-background:new    ;" width="231" height="208" id="Blazor" xlink:href="F2A86336.png"  transform="matrix(1 0 0 1 36 20)">
	</image>
	
		<image style="overflow:visible;opacity:0.83;enable-background:new    ;" width="192" height="53" id="MacBook_Desktop" xlink:href="F2A8633A.png"  transform="matrix(1 0 0 1 388 621)">
	</image>
	
		<image style="overflow:visible;opacity:0.83;enable-background:new    ;" width="177" height="177" id="Asp.NET_Core" xlink:href="F2A8633D.png"  transform="matrix(1 0 0 1 229 160)">
	</image>
	
		<image style="overflow:visible;opacity:0.83;enable-background:new    ;" width="197" height="121" id="NodeJS" xlink:href="F2A8633E.png"  transform="matrix(1 0 0 1 1012 57)">
	</image>
	
		<image style="overflow:visible;opacity:0.83;enable-background:new    ;" width="73" height="82" id="React" xlink:href="F2A8633C.png"  transform="matrix(1 0 0 1 1154 171)">
	</image>
	
		<image style="overflow:visible;opacity:0.83;enable-background:new    ;" width="179" height="67" id="Samsung" xlink:href="F2A8633B.png"  transform="matrix(1 0 0 1 808 615)">
	</image>
	
		<image style="overflow:visible;opacity:0.83;enable-background:new    ;" width="160" height="142" id="Vue" xlink:href="F2A86335.png"  transform="matrix(1 0 0 1 1190 36)">
	</image>
	
		<image style="overflow:visible;opacity:0.83;enable-background:new    ;" width="90" height="92" id="Windows_Desktop" xlink:href="F2A86337.png"  transform="matrix(1 0 0 1 390 465)">
	</image>
	<g id="Windows_Phone" class="st1">
		
			<image style="overflow:visible;opacity:0.83;enable-background:new    ;" width="51" height="51" id="Logo" xlink:href="F2A86334.png"  transform="matrix(1 0 0 1 602 712)">
		</image>
		
			<image style="overflow:visible;opacity:0.83;enable-background:new    ;" width="72" height="22" id="Phones" xlink:href="12565729.png"  transform="matrix(1 0 0 1 664 741)">
		</image>
		
			<image style="overflow:visible;opacity:0.83;enable-background:new    ;" width="135" height="28" id="Windows" xlink:href="1256572F.png"  transform="matrix(1 0 0 1 661 710)">
		</image>
	</g>
	
		<image style="overflow:visible;opacity:0.83;enable-background:new    ;" width="85" height="101" id="Android" xlink:href="12565728.png"  transform="matrix(1 0 0 1 645 532)">
	</image>
	
		<image style="overflow:visible;opacity:0.83;enable-background:new    ;" width="92" height="92" id="iPHone" xlink:href="1256572B.png"  transform="matrix(1 0 0 1 895 465)">
	</image>
	
		<image style="overflow:visible;opacity:0.83;enable-background:new    ;" width="159" height="168" id="Angular" xlink:href="12565737.png"  transform="matrix(1 0 0 1 946 169)">
	</image>
	
		<linearGradient id="Arrow_5_1_00000089558951428730958370000014709832121853416594_" gradientUnits="userSpaceOnUse" x1="498.499" y1="623.972" x2="498.499" y2="671.03" gradientTransform="matrix(1 0 0 -1 0 798)">
		<stop  offset="0" style="stop-color:#181E26"/>
		<stop  offset="1" style="stop-color:#6386BA"/>
	</linearGradient>
	
		<path id="Arrow_5_1" style="fill-rule:evenodd;clip-rule:evenodd;fill:url(#Arrow_5_1_00000089558951428730958370000014709832121853416594_);" d="
		M569.9,154.6H464.1c5.1,7.6,7.6,12.6,7.9,19.4c-11.6-11.7-26.7-17.8-44.9-23.5c18.2-5.5,32.6-12.2,44.9-23.5
		c-0.8,7.4-2.9,11.8-8.1,19.9h106V154.6L569.9,154.6z"/>
	
		<linearGradient id="Arrow_5_1_copy_00000086668966938704946520000017519719129999942278_" gradientUnits="userSpaceOnUse" x1="522.8295" y1="376.24" x2="522.8295" y2="472.945" gradientTransform="matrix(1 0 0 -1 0 798)">
		<stop  offset="0" style="stop-color:#181E26"/>
		<stop  offset="1" style="stop-color:#6386BA"/>
	</linearGradient>
	
		<path id="Arrow_5_1_copy" style="fill-rule:evenodd;clip-rule:evenodd;fill:url(#Arrow_5_1_copy_00000086668966938704946520000017519719129999942278_);" d="
		M472.7,325.1l80,69.3c1.1-9.1,2.5-14.5,6.7-19.8c1.1,16.4,8.5,30.9,18.5,47.2c-17.4-7.8-32.7-12.2-49.4-11.6
		c5.4-5.1,9.9-7,19.2-9.8l-80.1-69.4L472.7,325.1z"/>
	
		<linearGradient id="arrow-client-side_00000012437422893159352130000009257034762188673942_" gradientUnits="userSpaceOnUse" x1="890.5005" y1="622.97" x2="890.5005" y2="670.028" gradientTransform="matrix(1 0 0 -1 0 798)">
		<stop  offset="0" style="stop-color:#181E26"/>
		<stop  offset="1" style="stop-color:#6386BA"/>
	</linearGradient>
	
		<path id="arrow-client-side" style="fill-rule:evenodd;clip-rule:evenodd;fill:url(#arrow-client-side_00000012437422893159352130000009257034762188673942_);" d="
		M819.1,147.4h105.9c-5.1-7.6-7.6-12.6-7.9-19.4c11.6,11.7,26.7,17.8,44.9,23.5c-18.2,5.5-32.6,12.2-44.9,23.5
		c0.8-7.4,2.9-11.8,8.1-19.9h-106V147.4L819.1,147.4z"/>
	
		<linearGradient id="arrow-client-side_copy_00000085239447793915111360000013607862627678349967_" gradientUnits="userSpaceOnUse" x1="882.447" y1="366.783" x2="882.447" y2="472.244" gradientTransform="matrix(1 0 0 -1 0 798)">
		<stop  offset="0" style="stop-color:#181E26"/>
		<stop  offset="1" style="stop-color:#6386BA"/>
	</linearGradient>
	
		<path id="arrow-client-side_copy" style="fill-rule:evenodd;clip-rule:evenodd;fill:url(#arrow-client-side_copy_00000085239447793915111360000013607862627678349967_);" d="
		M933.5,331.1l-73.4,76.3c9,1.6,14.4,3.2,19.5,7.8c-16.5,0.3-31.3,6.9-48.1,16.1c8.7-16.9,13.8-32,14.2-48.7
		c4.8,5.7,6.5,10.3,8.8,19.6l73.5-76.4L933.5,331.1z"/>
</g>
<g id="Layer_2">
	<g id="jsopx-logo">
		
			<image style="overflow:visible;opacity:0.75;" width="269" height="269" xlink:href="12565727.png"  transform="matrix(1 0 0 1 560 14)">
		</image>
		<g>
			<g>
				<g>
					<g>
						<path class="st6" d="M739,251.6h58.4c0,3.2-2.5,5.9-5.5,5.9h-47.5C741.5,257.4,739,254.8,739,251.6z"/>
						<path class="st6" d="M783.7,163.7c7.6,0,13.8,6.5,13.8,14.4c0,8-6.2,14.4-13.8,14.4c-7.6,0-13.7-6.4-13.7-14.4
							C770,170.2,776.1,163.7,783.7,163.7z M791.5,187.2l-4.9-9l4.8-8.9h-4.7l-2.8,6l-2.8-6h-4.7l4.8,8.9l-4.9,9h4.8l2.9-6.1
							l2.9,6.1H791.5z"/>
						<path class="st6" d="M793.8,232.6v17h-51.1v-17.9l1.1-3c0.9-2.4,0.4-5.1-1.1-7v-5.4c0-3.2,2.4-5.9,5.5-5.9h40.2
							c2.6,0,4.8,2,5.3,4.6v17c0,0.2,0,0.3,0,0.5C793.7,232.7,793.8,232.6,793.8,232.6z M790.2,245.7v-29.3c0-1.1-0.8-2-1.8-2h-40.2
							c-1,0-1.8,0.9-1.8,2v29.3H790.2z"/>
						<path class="st6" d="M793.8,216.4v16.2c0,0-0.1,0.1-0.1,0.1c0-0.2,0-0.3,0-0.5v-17C793.8,215.6,793.8,216,793.8,216.4z"/>
						<polygon class="st7" points="786.6,178.1 791.5,187.2 786.7,187.2 783.8,181.1 781,187.2 776.2,187.2 781.1,178.1 
							776.3,169.2 781,169.2 783.8,175.2 786.6,169.2 791.3,169.2 						"/>
						<path class="st7" d="M790.2,216.4v29.3h-43.8v-29.3c0-1.1,0.8-2,1.8-2h40.2C789.3,214.5,790.2,215.4,790.2,216.4z"/>
						<path class="st6" d="M789.8,129.7c-0.2-0.8-0.5-1.5-1-2.1c-0.4-0.6-0.9-1.1-1.5-1.4c-0.6-0.3-1.3-0.5-2.1-0.5
							c-0.8,0-1.4,0.2-2,0.5c-0.4,0.2-0.7,0.6-1,1l-0.1-1.2h-3.7v18.4h4v-6.2c0.3,0.3,0.6,0.6,0.9,0.8c0.5,0.4,1.2,0.5,2,0.5
							c0.8,0,1.5-0.2,2.1-0.5c0.6-0.3,1.1-0.8,1.5-1.4c0.4-0.6,0.7-1.3,0.9-2.2c0.2-0.8,0.3-1.7,0.3-2.7v-0.3
							C790.1,131.4,790,130.5,789.8,129.7z M783.7,120.5c7.6,0,13.8,6.5,13.8,14.4c0,8-6.2,14.4-13.8,14.4
							c-7.6,0-13.7-6.4-13.7-14.4C770,127,776.1,120.5,783.7,120.5z"/>
						<path class="st7" d="M785.7,135.2c0.1-0.3,0.3-0.7,0.3-1.2c0.1-0.4,0.1-0.9,0.1-1.4v-0.3c0-0.5,0-1-0.1-1.4
							c-0.1-0.4-0.2-0.8-0.3-1.1c-0.1-0.3-0.3-0.6-0.6-0.7s-0.6-0.3-0.9-0.3c-0.4,0-0.8,0.1-1.1,0.2c-0.3,0.1-0.5,0.3-0.7,0.6
							c0,0.1-0.1,0.1-0.1,0.2v5.3c0.1,0.3,0.3,0.5,0.6,0.7c0.3,0.3,0.8,0.4,1.3,0.4c0.4,0,0.7-0.1,0.9-0.3
							C785.4,135.8,785.6,135.6,785.7,135.2z M788.8,127.5c0.4,0.6,0.7,1.3,1,2.1c0.2,0.8,0.3,1.8,0.3,2.8v0.3c0,1-0.1,1.9-0.3,2.7
							c-0.2,0.8-0.5,1.5-0.9,2.2c-0.4,0.6-0.9,1.1-1.5,1.4c-0.6,0.3-1.3,0.5-2.1,0.5c-0.8,0-1.4-0.2-2-0.5c-0.3-0.2-0.6-0.5-0.9-0.8
							v6.2h-4v-18.4h3.7l0.1,1.2c0.3-0.4,0.6-0.7,1-1c0.6-0.3,1.2-0.5,2-0.5c0.8,0,1.5,0.2,2.1,0.5
							C787.9,126.5,788.4,126.9,788.8,127.5z"/>
						<path class="st6" d="M786,134.1c-0.1,0.4-0.2,0.8-0.3,1.2c-0.2,0.3-0.4,0.6-0.6,0.8c-0.2,0.2-0.6,0.3-0.9,0.3
							c-0.6,0-1-0.1-1.3-0.4c-0.2-0.2-0.4-0.4-0.6-0.7v-5.3c0-0.1,0.1-0.2,0.1-0.2c0.2-0.3,0.4-0.5,0.7-0.6c0.3-0.1,0.6-0.2,1.1-0.2
							c0.4,0,0.7,0.1,0.9,0.3s0.4,0.4,0.6,0.7c0.2,0.3,0.3,0.7,0.3,1.1c0.1,0.4,0.1,0.9,0.1,1.4v0.3
							C786.1,133.2,786.1,133.7,786,134.1z"/>
						<path class="st6" d="M786.4,91.5v0.3c0,0.6,0,1.1-0.1,1.6c-0.1,0.5-0.2,0.9-0.4,1.3c-0.2,0.4-0.4,0.7-0.8,0.9
							c-0.3,0.2-0.7,0.3-1.2,0.3c-0.5,0-0.9-0.1-1.2-0.3c-0.3-0.2-0.6-0.5-0.8-0.9c-0.2-0.4-0.3-0.8-0.4-1.3c-0.1-0.5-0.1-1-0.1-1.6
							v-0.3c0-0.6,0-1.1,0.1-1.6c0.1-0.5,0.2-0.9,0.4-1.3c0.2-0.4,0.4-0.7,0.7-0.9c0.3-0.2,0.7-0.3,1.2-0.3c0.5,0,0.9,0.1,1.2,0.3
							c0.3,0.2,0.6,0.5,0.8,0.9c0.2,0.4,0.3,0.8,0.4,1.3C786.3,90.4,786.4,91,786.4,91.5z"/>
						<path class="st7" d="M786.4,91.8v-0.3c0-0.6,0-1.1-0.1-1.6c-0.1-0.5-0.2-0.9-0.4-1.3c-0.2-0.4-0.4-0.7-0.8-0.9
							c-0.3-0.2-0.7-0.3-1.2-0.3c-0.5,0-0.9,0.1-1.2,0.3c-0.3,0.2-0.6,0.5-0.7,0.9c-0.2,0.4-0.3,0.8-0.4,1.3c-0.1,0.5-0.1,1-0.1,1.6
							v0.3c0,0.6,0,1.1,0.1,1.6c0.1,0.5,0.2,0.9,0.4,1.3c0.2,0.4,0.4,0.7,0.8,0.9c0.3,0.2,0.7,0.3,1.2,0.3c0.5,0,0.9-0.1,1.2-0.3
							c0.3-0.2,0.6-0.5,0.8-0.9c0.2-0.4,0.3-0.8,0.4-1.3C786.3,92.9,786.4,92.4,786.4,91.8z M790.4,94.9c-0.3,0.9-0.8,1.8-1.3,2.5
							c-0.6,0.7-1.3,1.2-2.2,1.6c-0.9,0.4-1.9,0.6-3,0.6c-1.1,0-2.1-0.2-3-0.6c-0.9-0.4-1.6-0.9-2.2-1.6c-0.6-0.7-1-1.5-1.3-2.5
							c-0.3-0.9-0.5-2-0.5-3.1v-0.3c0-1.1,0.2-2.1,0.5-3.1c0.3-0.9,0.8-1.8,1.3-2.5s1.3-1.2,2.2-1.6c0.9-0.4,1.9-0.6,3-0.6
							c1.1,0,2.2,0.2,3,0.6c0.9,0.4,1.6,0.9,2.2,1.6c0.6,0.7,1,1.5,1.3,2.5c0.3,0.9,0.5,2,0.5,3.1v0.3
							C790.9,92.9,790.7,93.9,790.4,94.9z"/>
						<path class="st6" d="M790.4,88.4c-0.3-0.9-0.8-1.8-1.3-2.5c-0.6-0.7-1.3-1.2-2.2-1.6c-0.9-0.4-1.9-0.6-3-0.6
							c-1.1,0-2.1,0.2-3,0.6c-0.9,0.4-1.6,0.9-2.2,1.6s-1,1.5-1.3,2.5c-0.3,0.9-0.5,2-0.5,3.1v0.3c0,1.1,0.2,2.1,0.5,3.1
							c0.3,0.9,0.8,1.8,1.3,2.5c0.6,0.7,1.3,1.2,2.2,1.6c0.9,0.4,1.9,0.6,3,0.6c1.1,0,2.1-0.2,3-0.6c0.9-0.4,1.6-0.9,2.2-1.6
							c0.6-0.7,1-1.5,1.3-2.5c0.3-0.9,0.5-2,0.5-3.1v-0.3C790.9,90.4,790.7,89.4,790.4,88.4z M797.5,91.7c0,8-6.2,14.4-13.8,14.4
							c-7.6,0-13.7-6.4-13.7-14.4s6.2-14.4,13.7-14.4C791.3,77.3,797.5,83.7,797.5,91.7z"/>
						<path class="st6" d="M727.9,127.7c2,0.9,4.3,1.8,6.8,2.6c4.7,1.6,8.8,3.3,12.4,5.3c3.7,1.9,6.7,4.1,9.2,6.5
							c2.5,2.4,4.4,5.2,5.7,8.2c1.3,3.1,2,6.6,2,10.5c0,4.1-0.8,7.8-2.3,11c-1.5,3.2-3.7,5.9-6.6,8.2c-2.9,2.2-6.3,3.9-10.3,5
							c-4,1.1-8.4,1.7-13.4,1.7c-4.5,0-9-0.6-13.4-1.8c-4.4-1.2-8.3-3.1-11.8-5.6c-3.5-2.5-6.4-5.8-8.5-9.7c-2.1-4-3.1-8.7-3.1-14.1
							H716c0,2.7,0.3,5,1,6.8c0.7,1.9,1.7,3.4,3,4.5c1.3,1.1,3,1.9,4.9,2.4c1.9,0.5,4.1,0.7,6.6,0.7c2.7,0,4.9-0.4,6.5-1.2
							c1.7-0.8,2.9-1.9,3.6-3.3c0.8-1.4,1.1-2.9,1.1-4.6c0-1.4-0.2-2.7-0.6-3.9c-0.4-1.2-1.1-2.3-2.2-3.3c-1.1-1-2.7-2-4.7-3
							c-2-1.1-4.7-2.2-8-3.3c-3.9-1.3-7.6-2.9-11.2-4.6c-3.6-1.7-6.8-3.7-9.6-6c-2.8-2.3-5.1-5-6.7-8.1c-1.6-3.1-2.5-6.8-2.5-10.9
							c0-4,0.8-7.5,2.5-10.7c1.7-3.2,4-5.9,7.1-8.2c3.1-2.3,6.6-4,10.8-5.2c4.1-1.2,8.6-1.8,13.5-1.8c6.4,0,12.1,1.2,17,3.5
							c5,2.3,8.8,5.6,11.6,9.9c2.8,4.3,4.2,9.3,4.2,15.1H743c0-2.3-0.5-4.4-1.4-6.1c-0.9-1.8-2.2-3.2-4-4.2c-1.8-1-4.1-1.5-6.8-1.5
							c-2.7,0-4.9,0.4-6.7,1.3c-1.8,0.8-3.2,2-4.1,3.4c-0.9,1.4-1.4,2.9-1.4,4.6c0,1.4,0.4,2.7,1.1,3.8c0.8,1.1,1.8,2.1,3.2,3.1
							C724.2,125.9,725.9,126.8,727.9,127.7z"/>
						<path class="st6" d="M742.7,221.8c1.5,1.9,2,4.6,1.1,7l-1.1,3V221.8z"/>
						<path class="st6" d="M742.7,221.8v9.9l-8.6,22.8c-1.3,3.6-5.3,5.3-8.8,3.8l-38.1-15.8c-2-0.8-3.4-2.5-4-4.4l1.7-8.8l8.2-21.7
							c1.3-3.6,5.3-5.3,8.8-3.8l38.1,15.8C741,220.2,742,220.9,742.7,221.8z M740.6,227.4c0.7-1.8-0.2-3.8-2-4.5l-38.1-15.8
							c-1.8-0.7-3.7,0.1-4.4,1.9l-9.7,25.8c-0.7,1.8,0.2,3.8,2,4.5l38.1,15.8c1.8,0.7,3.7-0.1,4.4-1.9L740.6,227.4z"/>
						<path class="st7" d="M738.7,222.9c1.8,0.7,2.6,2.8,2,4.5l-9.7,25.8c-0.7,1.8-2.6,2.6-4.4,1.9l-38.1-15.8
							c-1.8-0.7-2.6-2.8-2-4.5l9.7-25.8c0.7-1.8,2.6-2.6,4.4-1.9L738.7,222.9z M732.6,239c0.7-1.8-0.2-3.8-2-4.5
							c-1.8-0.7-3.7,0.1-4.4,1.9c-0.7,1.8,0.2,3.8,2,4.5C729.9,241.7,731.9,240.8,732.6,239z"/>
						<path class="st6" d="M730.6,234.5c1.8,0.7,2.6,2.8,2,4.5c-0.7,1.8-2.6,2.6-4.4,1.9c-1.8-0.7-2.6-2.8-2-4.5
							C726.9,234.6,728.9,233.8,730.6,234.5z"/>
						<path class="st6" d="M683.5,197.7c3.9,0.8,6.5,4.8,5.7,8.9l-4.3,22.7l-1.6,4.1c-0.6,1.5-0.6,3.2-0.1,4.6l-2.5,13.1
							c-0.8,4.1-4.6,6.8-8.5,5.9l-21.3-4.5c-2.2-0.5-4-2-5-3.9c1.4-0.7,2.3-1.9,2.8-3c0.2,1.6,1.3,2.9,2.9,3.2l21.3,4.5
							c2,0.4,3.9-0.9,4.3-3l8.5-44.6c0.4-2.1-0.9-4-2.8-4.5l-21.3-4.5c-2-0.4-3.9,0.9-4.3,3l-7.6,39.9v-19.3l4.1-21.3
							c0.8-4.1,4.6-6.8,8.5-5.9L683.5,197.7z"/>
						<path class="st7" d="M682.8,201.4c2,0.4,3.2,2.4,2.8,4.5l-8.5,44.6c-0.4,2.1-2.3,3.4-4.3,3l-21.3-4.5
							c-1.6-0.3-2.7-1.7-2.9-3.2c0.9-2,0.9-4,0.9-4v-2l7.6-39.9c0.4-2.1,2.3-3.4,4.3-3L682.8,201.4z M667.2,244.6
							c0.4-2.1-0.9-4.1-2.8-4.5c-2-0.4-3.9,0.9-4.3,3c-0.4,2.1,0.9,4.1,2.8,4.5C664.9,247.9,666.8,246.6,667.2,244.6z"/>
						<path class="st6" d="M684.9,229.4l-1.7,8.8c-0.5-1.5-0.5-3.1,0.1-4.6L684.9,229.4z"/>
						<path class="st6" d="M663,93.2h21.1v63.3c0,6.2-1.3,11.5-4,16c-2.7,4.5-6.3,8-10.9,10.5c-4.6,2.4-9.7,3.7-15.4,3.7
							c-5.9,0-11.1-1-15.7-3.1c-4.6-2.1-8.1-5.3-10.8-9.6c-2.6-4.3-3.9-9.8-3.9-16.5h21.3c0,3.1,0.3,5.6,1,7.3c0.7,1.7,1.7,3,3,3.7
							c1.4,0.7,3,1,5,1c1.9,0,3.6-0.5,4.9-1.5c1.4-1.1,2.4-2.6,3.1-4.5c0.7-2,1.1-4.4,1.1-7.1V93.2z"/>
						<path class="st6" d="M664.4,240.1c2,0.4,3.2,2.4,2.8,4.5c-0.4,2.1-2.3,3.4-4.3,3c-2-0.4-3.2-2.4-2.8-4.5
							C660.5,241,662.4,239.7,664.4,240.1z"/>
						<path class="st6" d="M649.6,239.8v2c0,0,0,2-0.9,4c-0.1-0.4,0-0.8,0-1.2L649.6,239.8z"/>
						<path class="st6" d="M649.6,220.5v19.3l-0.9,4.7c-0.1,0.4-0.1,0.8,0,1.2c-0.6,1.2-1.4,2.3-2.8,3c-0.6-1.3-0.9-2.7-0.8-4.2
							c0.1-0.2,0.3-0.4,0.4-0.7c0.2-0.5,0.4-1.1,0.5-1.6c0-0.2,0.1-0.4,0.1-0.5c0,0,0-0.1,0-0.1v-2.2L649.6,220.5z"/>
						<path class="st7" d="M646,218.4v21.2l-0.8,4.2c-0.1,0.3-0.1,0.5-0.1,0.8c-0.2,0.2-0.3,0.4-0.5,0.5c-0.4,0.3-1,0.6-2.2,0.6
							h-43.8c0,0,0,0-0.1,0c-0.1,0-0.3,0-0.5-0.1c-0.4-0.1-1-0.2-1.5-0.5c-0.5-0.3-0.8-0.6-1.1-1c-0.2-0.4-0.5-1.1-0.5-2.3v-9.2
							c0,0,0.1,0.1,0.1,0.1c0-0.2,0-0.3,0-0.5v-14.7c0.1-0.4,0.2-0.8,0.4-1.2c0.2-0.5,0.5-0.9,0.9-1.2c0.4-0.3,1-0.6,2.2-0.6h43.8
							c0,0,0,0,0.1,0c0.1,0,0.3,0,0.5,0.1c0.4,0.1,1,0.2,1.5,0.5c0.5,0.3,0.9,0.6,1.1,1C645.7,216.4,646,217.1,646,218.4z"/>
						<path class="st6" d="M645.2,243.8l0.8-4.2v2.2c0,0,0,0,0,0.1c0,0.1,0,0.3-0.1,0.5c-0.1,0.5-0.2,1.1-0.5,1.6
							c-0.1,0.2-0.2,0.5-0.4,0.7C645.1,244.3,645.1,244.1,645.2,243.8z"/>
						<path class="st6" d="M642.3,245.7c1.2,0,1.8-0.3,2.2-0.6c0.2-0.1,0.4-0.3,0.5-0.5c-0.1,1.5,0.2,2.9,0.8,4.2
							c-0.9,0.5-2.1,0.8-3.5,0.8h-14.6c0,2.6,0.3,4.6,0.9,5.9h2.7c1,0,1.8,0.9,1.8,2h-25.6c0-1.1,0.8-2,1.8-2h2.7
							c0.6-1.3,0.9-3.3,0.9-5.9h-14.6c0,0-7.3,0-7.3-7.8v-11.9c1.1,1.1,2.3,2,3.7,2.7v9.2c0,1.3,0.3,2,0.5,2.3
							c0.3,0.4,0.6,0.7,1.1,1c0.5,0.3,1,0.4,1.5,0.5c0.2,0,0.4,0.1,0.5,0.1c0,0,0.1,0,0.1,0H642.3z"/>
						<path class="st6" d="M605,163.7c7.6,0,13.7,6.5,13.7,14.4c0,8-6.2,14.4-13.7,14.4c-7.6,0-13.8-6.4-13.8-14.4
							C591.2,170.2,597.4,163.7,605,163.7z M612.3,183.9V178c0-1.6-1.1-2.6-2.4-3v-2.7c0-2.7-2.1-5-4.7-5c-2.6,0-4.7,2.2-4.7,5v2.7
							c-1.3,0.4-2.4,1.5-2.4,3v5.9c0,2,1.8,3.2,3.5,3.2h7.1C610.4,187.2,612.3,186,612.3,183.9z"/>
						<path class="st6" d="M609.3,129.5l4.8,5l-4.8,5c-0.3,0.3-0.3,0.8,0,1.1s0.8,0.3,1.1,0l5.3-5.5c0.3-0.3,0.3-0.8,0-1.1l-5.3-5.5
							c-0.3-0.3-0.8-0.3-1.1,0C609,128.6,609,129.1,609.3,129.5z M606.8,123.9l-6.1,20.5c-0.1,0.4,0.1,0.9,0.5,1
							c0.4,0.1,0.8-0.1,1-0.5l6.1-20.5c0.1-0.4-0.1-0.9-0.5-1C607.3,123.3,606.9,123.5,606.8,123.9z M590.4,134.4
							c0-8.1,6.3-14.7,14.1-14.7c7.8,0,14.1,6.6,14.1,14.7s-6.3,14.7-14.1,14.7C596.7,149.2,590.4,142.6,590.4,134.4z M599.7,129.5
							c0.3-0.3,0.3-0.8,0-1.1c-0.3-0.3-0.8-0.3-1.1,0l-5.3,5.5c-0.3,0.3-0.3,0.8,0,1.1l5.3,5.5c0.3,0.3,0.8,0.3,1.1,0s0.3-0.8,0-1.1
							l-4.8-5L599.7,129.5z"/>
						<path class="st7" d="M614.1,134.4l-4.8-5c-0.3-0.3-0.3-0.8,0-1.1c0.3-0.3,0.8-0.3,1.1,0l5.3,5.5c0.3,0.3,0.3,0.8,0,1.1
							l-5.3,5.5c-0.3,0.3-0.8,0.3-1.1,0s-0.3-0.8,0-1.1L614.1,134.4z"/>
						<path class="st7" d="M612.6,90.6c0,0.4,0.1,0.7,0.1,1.1c0,2.6-1.1,4.9-2.9,6.4l-2.2-5.5L612.6,90.6z"/>
						<path class="st7" d="M612.3,178v5.9c0,2-1.8,3.2-3.5,3.2h-7.1c-1.7,0-3.5-1.2-3.5-3.2V178c0-1.6,1.1-2.6,2.4-3v-2.7
							c0-2.7,2.1-5,4.7-5c2.6,0,4.7,2.2,4.7,5v2.7C611.2,175.4,612.3,176.4,612.3,178z M607.5,174.8v-2.5c0-1.4-1.1-2.5-2.4-2.5
							c-1.3,0-2.4,1.1-2.4,2.5v2.5H607.5z"/>
						<path class="st7" d="M600.7,144.5l6.1-20.5c0.1-0.4,0.5-0.7,1-0.5c0.4,0.1,0.6,0.6,0.5,1l-6.1,20.5c-0.1,0.4-0.5,0.7-1,0.5
							C600.8,145.3,600.6,144.9,600.7,144.5z"/>
						<path class="st6" d="M607.5,172.3v2.5h-4.7v-2.5c0-1.4,1.1-2.5,2.4-2.5C606.5,169.8,607.5,170.9,607.5,172.3z"/>
						<path class="st6" d="M602.6,95.4l1.4-0.5l0.3,0.9l-2.6,0.9c-0.2,0.1-0.4,0-0.5-0.2c-0.1-0.2-0.1-0.4,0-0.5l1-1.6l-1.4,0.5
							c-0.2,0.1-0.4,0-0.5-0.2c-0.1-0.2-0.1-0.4,0-0.5l1-1.6l-1.4,0.5l-0.3-0.9l2.6-0.9c0.2-0.1,0.4,0,0.5,0.2
							c0.1,0.2,0.1,0.4,0,0.5l-1,1.6l1.4-0.5c0.2-0.1,0.4,0,0.5,0.2s0.1,0.4,0,0.5L602.6,95.4z"/>
						<path class="st7" d="M599.7,129.5l-4.8,5l4.8,5c0.3,0.3,0.3,0.8,0,1.1s-0.8,0.3-1.1,0l-5.3-5.5c-0.3-0.3-0.3-0.8,0-1.1
							l5.3-5.5c0.3-0.3,0.8-0.3,1.1,0C600,128.6,600,129.1,599.7,129.5z"/>
						<path class="st6" d="M596.3,215.1c-0.4,0.3-0.7,0.7-0.9,1.2c-0.2,0.4-0.3,0.8-0.4,1.2v-6.1c0.9-0.5,2.1-0.8,3.5-0.8h43.8
							c0,0,7.3,0,7.3,7.8v2.1l-3.7,19.1v-21.2c0-1.3-0.3-2-0.5-2.3c-0.3-0.4-0.6-0.7-1.1-1c-0.5-0.3-1-0.4-1.5-0.5
							c-0.2,0-0.4-0.1-0.5-0.1c0,0-0.1,0-0.1,0h-43.8C597.3,214.5,596.7,214.8,596.3,215.1z"/>
						<path class="st6" d="M595,217.5v14.7c0,0.2,0,0.3,0,0.5c0,0-0.1-0.1-0.1-0.1v-14.2c0,0,0,0,0-0.1c0-0.1,0-0.3,0.1-0.5
							C594.9,217.7,595,217.6,595,217.5z"/>
						<path class="st6" d="M595,211.4v6.1c0,0.1,0,0.2-0.1,0.3c0,0.2-0.1,0.4-0.1,0.5c0,0,0,0.1,0,0.1v14.2
							c-1.3-0.8-2.5-1.7-3.7-2.7v-11.5C591.2,218.4,591.2,213.4,595,211.4z"/>
						<path class="st6" d="M612.6,90.6l-5.1,2l2.2,5.5c1.8-1.5,2.9-3.8,2.9-6.4C612.7,91.3,612.7,91,612.6,90.6z M605.8,93.5
							l-1.7-4.5l6.6-2.8c-1.4-1.6-3.5-2.6-5.7-2.6c-4.3,0-7.7,3.6-7.7,8.1c0,1,0.2,2,0.5,2.9l-3.4,3c1.1,2.3,2.9,4.1,5.1,5.3
							l2.9-3.6c0.9,0.3,1.8,0.5,2.7,0.5c1.1,0,2.2-0.3,3.1-0.7L605.8,93.5z M605,106.1c-7.6,0-13.8-6.4-13.8-14.4
							s6.2-14.4,13.8-14.4c7.6,0,13.7,6.5,13.7,14.4S612.6,106.1,605,106.1z"/>
						<path class="st7" d="M591.2,91.7c0,8,6.2,14.4,13.8,14.4c7.6,0,13.7-6.4,13.7-14.4s-6.2-14.4-13.7-14.4
							C597.4,77.3,591.2,83.7,591.2,91.7z M604.5,119.7c-7.8,0-14.1,6.6-14.1,14.7s6.3,14.7,14.1,14.7c7.8,0,14.1-6.6,14.1-14.7
							S612.2,119.7,604.5,119.7z M684.1,156.4V93.2H663v63.3c0,2.7-0.4,5.1-1.1,7.1c-0.7,1.9-1.8,3.4-3.1,4.5c-1.3,1-3,1.5-4.9,1.5
							c-2,0-3.6-0.3-5-1c-1.3-0.7-2.3-1.9-3-3.7c-0.7-1.8-1-4.2-1-7.3h-21.3c0,6.7,1.3,12.2,3.9,16.5c2.6,4.3,6.2,7.5,10.8,9.6
							c4.6,2.1,9.8,3.1,15.7,3.1c5.7,0,10.8-1.2,15.4-3.7c4.6-2.5,8.2-6,10.9-10.5C682.8,167.9,684.1,162.6,684.1,156.4z
							 M797.5,134.9c0-8-6.2-14.4-13.8-14.4c-7.6,0-13.7,6.5-13.7,14.4c0,8,6.2,14.4,13.7,14.4C791.3,149.3,797.5,142.9,797.5,134.9
							z M783.7,106.1c7.6,0,13.8-6.4,13.8-14.4s-6.2-14.4-13.8-14.4c-7.6,0-13.7,6.5-13.7,14.4S776.1,106.1,783.7,106.1z
							 M734.7,130.3c-2.5-0.8-4.8-1.7-6.8-2.6c-2-0.9-3.7-1.8-5.1-2.8c-1.4-1-2.4-2-3.2-3.1c-0.7-1.1-1.1-2.4-1.1-3.8
							c0-1.7,0.5-3.2,1.4-4.6c0.9-1.4,2.3-2.6,4.1-3.4c1.8-0.8,4-1.3,6.7-1.3c2.7,0,5,0.5,6.8,1.5c1.8,1,3.2,2.4,4,4.2
							c0.9,1.8,1.4,3.8,1.4,6.1h21.1c0-5.8-1.4-10.9-4.2-15.1c-2.8-4.3-6.6-7.6-11.6-9.9c-4.9-2.4-10.6-3.5-17-3.5
							c-4.9,0-9.4,0.6-13.5,1.8c-4.1,1.2-7.7,2.9-10.8,5.2c-3,2.2-5.4,5-7.1,8.2c-1.7,3.2-2.5,6.7-2.5,10.7c0,4.1,0.8,7.8,2.5,10.9
							c1.7,3.1,3.9,5.8,6.7,8.1c2.8,2.3,6,4.3,9.6,6c3.6,1.7,7.3,3.2,11.2,4.6c3.3,1.1,6,2.2,8,3.3c2.1,1,3.6,2,4.7,3
							c1.1,1,1.8,2.1,2.2,3.3c0.4,1.1,0.6,2.4,0.6,3.9c0,1.6-0.4,3.2-1.1,4.6c-0.8,1.4-2,2.4-3.6,3.3c-1.7,0.8-3.8,1.2-6.5,1.2
							c-2.5,0-4.7-0.2-6.6-0.7c-1.9-0.5-3.6-1.3-4.9-2.4c-1.3-1.1-2.3-2.6-3-4.5c-0.7-1.9-1-4.1-1-6.8h-21.3c0,5.4,1,10.2,3.1,14.1
							c2.1,3.9,5,7.2,8.5,9.7c3.5,2.5,7.5,4.4,11.8,5.6c4.4,1.2,8.8,1.8,13.4,1.8c4.9,0,9.4-0.6,13.4-1.7c4-1.1,7.4-2.8,10.3-5
							c2.9-2.2,5.1-5,6.6-8.2c1.5-3.2,2.3-6.9,2.3-11c0-3.9-0.7-7.4-2-10.5c-1.3-3.1-3.2-5.8-5.7-8.2c-2.5-2.4-5.6-4.6-9.2-6.5
							C743.5,133.6,739.3,131.8,734.7,130.3z M598.1,108.2c-6.1-2.8-10.3-9.1-10.3-16.5c0-9.9,7.7-18,17.2-18c3.6,0,7,1.2,9.7,3.2
							H774c2.8-2,6.1-3.2,9.7-3.2c9.5,0,17.2,8.1,17.2,18c0,7.4-4.2,13.7-10.3,16.5v10.2c6.1,2.8,10.3,9.1,10.3,16.5
							c0,7.4-4.2,13.7-10.3,16.5v10.2c6.1,2.8,10.3,9.1,10.3,16.5c0,7.4-4.2,13.7-10.3,16.5v9.9c1.9,1.3,3.1,3.5,3.1,6v4.6
							c-0.5-2.6-2.7-4.6-5.3-4.6h-40.2c-3,0-5.5,2.6-5.5,5.9v5.4c-0.7-0.9-1.7-1.6-2.8-2.1l-38.1-15.8c-3.5-1.5-7.4,0.3-8.8,3.8
							l-8.2,21.7l4.3-22.7c0.8-4.1-1.8-8.1-5.7-8.9l-21.3-4.5c-3.9-0.8-7.7,1.8-8.5,5.9l-4.1,21.3v-2.1c0-7.8-7.3-7.8-7.3-7.8h-43.8
							c-1.4,0-2.6,0.3-3.5,0.8v-0.8c0-2.5,1.2-4.7,3.1-6v-9.9c-6.1-2.8-10.3-9.1-10.3-16.5c0-7.4,4.2-13.7,10.3-16.5v-10.2
							c-6.1-2.8-10.3-9.1-10.3-16.5c0-7.4,4.2-13.7,10.3-16.5V108.2z M797.5,178.2c0-8-6.2-14.4-13.8-14.4
							c-7.6,0-13.7,6.5-13.7,14.4c0,8,6.2,14.4,13.7,14.4C791.3,192.6,797.5,186.1,797.5,178.2z M618.7,178.2
							c0-8-6.2-14.4-13.7-14.4c-7.6,0-13.8,6.5-13.8,14.4c0,8,6.2,14.4,13.8,14.4C612.6,192.6,618.7,186.1,618.7,178.2z"/>
						<path class="st7" d="M602.7,91.9c0.1-0.2,0.1-0.4,0-0.5c-0.1-0.2-0.3-0.2-0.5-0.2l-2.6,0.9l0.3,0.9l1.4-0.5l-1,1.6
							c-0.1,0.2-0.1,0.4,0,0.5c0.1,0.2,0.3,0.2,0.5,0.2l1.4-0.5l-1,1.6c-0.1,0.2-0.1,0.4,0,0.5c0.1,0.2,0.3,0.2,0.5,0.2l2.6-0.9
							l-0.3-0.9l-1.4,0.5l1-1.6c0.1-0.2,0.1-0.4,0-0.5s-0.3-0.2-0.5-0.2l-1.4,0.5L602.7,91.9z M604.1,89l1.7,4.5l2.3,5.6
							c-1,0.4-2,0.7-3.1,0.7c-1,0-1.9-0.2-2.7-0.5l-2.9,3.6c-2.2-1.2-3.9-3.1-5.1-5.3l3.4-3c-0.3-0.9-0.5-1.9-0.5-2.9
							c0-4.5,3.5-8.1,7.7-8.1c2.3,0,4.3,1,5.7,2.6L604.1,89z"/>
						<path class="st6" d="M660.8,62.4h102.3v-3.2c0-4.7-18-2.9-22.3-1.8L660.8,62.4z M747.6,39.5c13-3.4,36.1,8.9,36.1,23
							c11.4,0,20.6,9.7,20.6,21.6v129.7c0,8.1-4.2,15.1-10.5,18.9v-16.2c0-0.4,0-0.9-0.1-1.3v-4.6c0-2.5-1.2-4.7-3.1-6v-9.9
							c6.1-2.8,10.3-9.1,10.3-16.5c0-7.4-4.2-13.7-10.3-16.5v-10.2c6.1-2.8,10.3-9.1,10.3-16.5c0-7.4-4.2-13.7-10.3-16.5v-10.2
							c6.1-2.8,10.3-9.1,10.3-16.5c0-9.9-7.7-18-17.2-18c-3.6,0-7,1.2-9.7,3.2H614.7c-2.8-2-6.1-3.2-9.7-3.2
							c-9.5,0-17.2,8.1-17.2,18c0,7.4,4.2,13.7,10.3,16.5v10.2c-6.1,2.8-10.3,9.1-10.3,16.5c0,7.4,4.2,13.7,10.3,16.5v10.2
							c-6.1,2.8-10.3,9.1-10.3,16.5c0,7.4,4.2,13.7,10.3,16.5v9.9c-1.9,1.3-3.1,3.5-3.1,6v0.8c-3.8,2-3.8,7-3.8,7v11.5
							c-4.2-4-6.9-9.7-6.9-16.1V84.1c0-11.6,8.7-21.1,19.7-21.6L747.6,39.5z"/>
					</g>
				</g>
			</g>
		</g>
	</g>
</g>
</svg>
