<?xml version="1.0" encoding="utf-8"?>
<!-- Generator: Adobe Illustrator 27.0.0, SVG Export Plug-In . SVG Version: 6.00 Build 0)  -->
<svg version="1.1" xmlns="http://www.w3.org/2000/svg" xmlns:xlink="http://www.w3.org/1999/xlink" x="0px" y="0px"
	 viewBox="0 0 1391 798" style="enable-background:new 0 0 1391 798;" xml:space="preserve">
<style type="text/css">
	.st0{opacity:0.16;fill-rule:evenodd;clip-rule:evenodd;fill:#6E6E6E;stroke:#236C9C;enable-background:new    ;}
	.st1{opacity:0.83;}
	.st2{fill-rule:evenodd;clip-rule:evenodd;fill:url(#Arrow_5_1_00000115490236796221128090000014958332524320495266_);}
	.st3{fill-rule:evenodd;clip-rule:evenodd;fill:url(#Arrow_5_1_copy_00000170979481117790876650000015834121800372468906_);}
	.st4{fill-rule:evenodd;clip-rule:evenodd;fill:url(#arrow-client-side_00000148636594176347072740000016002498784553786284_);}
	
		.st5{fill-rule:evenodd;clip-rule:evenodd;fill:url(#arrow-client-side_copy_00000016767983646783871550000000957264893373516960_);}
	.st6{fill:#4C4D9F;}
	.st7{fill:#FDEADF;}
	.st8{fill:#384EA0;}
</style>
<g id="Layer_1">
	<path id="Shape_85_1" class="st0" d="M1143.9,356.1L1465,857.9l-317.4-444l113.7,348.2l-134.1-239.6l38.7,186.4L1090.6,584
		l-40.1-67l12.8,158.8l-104.4-196l34.8,142.4L834.8,304.2L607.8,641.4l129-342.2c-50.7,94.4-217.9,342-205.4,310
		s106.7-277.7,106.7-277.7S492.9,567.7,498.8,555.1c3.5-7.5,67.1-147.4,118.1-259.5l-268.1,486l111.5-315.7
		c-37.1,53.9-165.2,239.9-163.8,235.3c1.6-5.4,100.9-219.1,100.9-219.1L126,857.9l296-487.3l73.3,84.6l190.5-328L772,286l73.3-99
		L1023,488.2L1143.9,356.1z"/>
	<path id="Shape_85_1_copy" class="st0" d="M993.9,376.1L1315,877.9l-317.5-444l113.7,348.2L977.2,542.5l38.7,186.4L940.6,604
		l-40.1-67l12.8,158.8l-104.4-196l34.8,142.4L684.8,324.2L457.8,661.4l129-342.2c-50.7,94.4-217.9,342-205.4,310
		s106.7-277.7,106.7-277.7S342.9,587.7,348.8,575.1c3.5-7.5,67.1-147.4,118.1-259.5l-268.1,486l111.5-315.7
		c-37.1,53.9-165.2,239.9-163.8,235.3c1.6-5.4,100.9-219.1,100.9-219.1L-24,877.9l296-487.3l73.3,84.6l190.5-328L622,306l73.3-99
		L873,508.2L993.9,376.1z"/>
	
		<image style="overflow:visible;opacity:0.83;enable-background:new    ;" width="231" height="208" id="Blazor" xlink:href="F2A86336.png"  transform="matrix(1 0 0 1 36 20)">
	</image>
	
		<image style="overflow:visible;opacity:0.83;enable-background:new    ;" width="192" height="53" id="MacBook_Desktop" xlink:href="F2A8633A.png"  transform="matrix(1 0 0 1 388 621)">
	</image>
	
		<image style="overflow:visible;opacity:0.83;enable-background:new    ;" width="177" height="177" id="Asp.NET_Core" xlink:href="F2A8633D.png"  transform="matrix(1 0 0 1 229 160)">
	</image>
	
		<image style="overflow:visible;opacity:0.83;enable-background:new    ;" width="197" height="121" id="NodeJS" xlink:href="F2A8633E.png"  transform="matrix(1 0 0 1 1012 57)">
	</image>
	
		<image style="overflow:visible;opacity:0.83;enable-background:new    ;" width="73" height="82" id="React" xlink:href="F2A8633C.png"  transform="matrix(1 0 0 1 1154 171)">
	</image>
	
		<image style="overflow:visible;opacity:0.83;enable-background:new    ;" width="179" height="67" id="Samsung" xlink:href="F2A8633B.png"  transform="matrix(1 0 0 1 808 615)">
	</image>
	
		<image style="overflow:visible;opacity:0.83;enable-background:new    ;" width="160" height="142" id="Vue" xlink:href="F2A86335.png"  transform="matrix(1 0 0 1 1190 36)">
	</image>
	
		<image style="overflow:visible;opacity:0.83;enable-background:new    ;" width="90" height="92" id="Windows_Desktop" xlink:href="F2A86337.png"  transform="matrix(1 0 0 1 390 465)">
	</image>
	<g id="Windows_Phone" class="st1">
		
			<image style="overflow:visible;opacity:0.83;enable-background:new    ;" width="51" height="51" id="Logo" xlink:href="F2A86334.png"  transform="matrix(1 0 0 1 602 712)">
		</image>
		
			<image style="overflow:visible;opacity:0.83;enable-background:new    ;" width="72" height="22" id="Phones" xlink:href="12565729.png"  transform="matrix(1 0 0 1 664 741)">
		</image>
		
			<image style="overflow:visible;opacity:0.83;enable-background:new    ;" width="135" height="28" id="Windows" xlink:href="1256572F.png"  transform="matrix(1 0 0 1 661 710)">
		</image>
	</g>
	
		<image style="overflow:visible;opacity:0.83;enable-background:new    ;" width="85" height="101" id="Android" xlink:href="12565728.png"  transform="matrix(1 0 0 1 645 532)">
	</image>
	
		<image style="overflow:visible;opacity:0.83;enable-background:new    ;" width="92" height="92" id="iPHone" xlink:href="1256572B.png"  transform="matrix(1 0 0 1 895 465)">
	</image>
	
		<image style="overflow:visible;opacity:0.83;enable-background:new    ;" width="159" height="168" id="Angular" xlink:href="12565737.png"  transform="matrix(1 0 0 1 946 169)">
	</image>
	
		<linearGradient id="Arrow_5_1_00000116952349079288283210000002152889120757399231_" gradientUnits="userSpaceOnUse" x1="498.499" y1="623.972" x2="498.499" y2="671.03" gradientTransform="matrix(1 0 0 -1 0 798)">
		<stop  offset="0" style="stop-color:#181E26"/>
		<stop  offset="1" style="stop-color:#6386BA"/>
	</linearGradient>
	
		<path id="Arrow_5_1" style="fill-rule:evenodd;clip-rule:evenodd;fill:url(#Arrow_5_1_00000116952349079288283210000002152889120757399231_);" d="
		M569.9,154.6H464.1c5.1,7.6,7.6,12.6,7.9,19.4c-11.6-11.7-26.7-17.8-44.9-23.5c18.2-5.5,32.6-12.2,44.9-23.5
		c-0.8,7.4-2.9,11.8-8.1,19.9h106V154.6L569.9,154.6z"/>
	
		<linearGradient id="Arrow_5_1_copy_00000035502730436413999150000011848158444579793316_" gradientUnits="userSpaceOnUse" x1="522.8295" y1="376.24" x2="522.8295" y2="472.945" gradientTransform="matrix(1 0 0 -1 0 798)">
		<stop  offset="0" style="stop-color:#181E26"/>
		<stop  offset="1" style="stop-color:#6386BA"/>
	</linearGradient>
	
		<path id="Arrow_5_1_copy" style="fill-rule:evenodd;clip-rule:evenodd;fill:url(#Arrow_5_1_copy_00000035502730436413999150000011848158444579793316_);" d="
		M472.7,325.1l80,69.3c1.1-9.1,2.5-14.5,6.7-19.8c1.1,16.4,8.5,30.9,18.5,47.2c-17.4-7.8-32.7-12.2-49.4-11.6
		c5.4-5.1,9.9-7,19.2-9.8l-80.1-69.4L472.7,325.1z"/>
	
		<linearGradient id="arrow-client-side_00000016044989314034004590000008005365138028238247_" gradientUnits="userSpaceOnUse" x1="890.5005" y1="622.97" x2="890.5005" y2="670.028" gradientTransform="matrix(1 0 0 -1 0 798)">
		<stop  offset="0" style="stop-color:#181E26"/>
		<stop  offset="1" style="stop-color:#6386BA"/>
	</linearGradient>
	
		<path id="arrow-client-side" style="fill-rule:evenodd;clip-rule:evenodd;fill:url(#arrow-client-side_00000016044989314034004590000008005365138028238247_);" d="
		M819.1,147.4h105.9c-5.1-7.6-7.6-12.6-7.9-19.4c11.6,11.7,26.7,17.8,44.9,23.5c-18.2,5.5-32.6,12.2-44.9,23.5
		c0.8-7.4,2.9-11.8,8.1-19.9h-106V147.4L819.1,147.4z"/>
	
		<linearGradient id="arrow-client-side_copy_00000037694838675967322620000016350185751721283727_" gradientUnits="userSpaceOnUse" x1="882.447" y1="366.783" x2="882.447" y2="472.244" gradientTransform="matrix(1 0 0 -1 0 798)">
		<stop  offset="0" style="stop-color:#181E26"/>
		<stop  offset="1" style="stop-color:#6386BA"/>
	</linearGradient>
	
		<path id="arrow-client-side_copy" style="fill-rule:evenodd;clip-rule:evenodd;fill:url(#arrow-client-side_copy_00000037694838675967322620000016350185751721283727_);" d="
		M933.5,331.1l-73.4,76.3c9,1.6,14.4,3.2,19.5,7.8c-16.5,0.3-31.3,6.9-48.1,16.1c8.7-16.9,13.8-32,14.2-48.7
		c4.8,5.7,6.5,10.3,8.8,19.6l73.5-76.4L933.5,331.1z"/>
</g>
<g id="Layer_2">
	<path class="st6" d="M765,299.2H623.4c-41.4,0-74.9-33.5-74.9-74.9V82.7c0-41.4,33.5-74.9,74.9-74.9H765
		c41.4,0,74.9,33.5,74.9,74.9v141.6C839.8,265.6,806.3,299.2,765,299.2z"/>
	<g id="jsopx-logo">
		<g id="XMLID_00000098935339110928308420000014050644340565471674_">
			<g>
				<path class="st7" d="M806.8,240.4v-18.9c0.1,0.5,0.1,0.9,0.1,1.4v17.9c-0.1,0-0.1,0.1-0.2,0.1
					C806.8,240.8,806.8,240.6,806.8,240.4z"/>
				<path class="st8" d="M802.8,222.9v32.5h-49v-32.5c0-1.2,0.9-2.2,2-2.2h44.9C801.9,220.8,802.8,221.7,802.8,222.9z"/>
				<path class="st7" d="M794,142.9V136c0.3,0.4,0.6,0.6,1,0.9c0.6,0.4,1.3,0.6,2.2,0.6c0.9,0,1.7-0.2,2.4-0.6
					c0.7-0.4,1.3-0.9,1.7-1.6c0.5-0.7,0.8-1.5,1-2.4c0.2-0.9,0.4-1.9,0.4-3v-0.3c0-1.1-0.1-2.1-0.4-3.1c-0.2-0.9-0.6-1.7-1.1-2.4
					c-0.5-0.7-1-1.2-1.7-1.5c-0.7-0.4-1.5-0.5-2.4-0.5c-0.8,0-1.6,0.2-2.2,0.6c-0.4,0.3-0.8,0.6-1.2,1.1l-0.1-1.4h-4.1v20.5H794z
					 M811,132.4c0,8.8-6.9,16-15.4,16c-8.5,0-15.4-7.2-15.4-16c0-8.8,6.9-16,15.4-16C804.1,116.4,811,123.6,811,132.4z"/>
				<path class="st7" d="M797.9,132.8c-0.2,0.4-0.4,0.7-0.7,0.9c-0.3,0.2-0.6,0.3-1,0.3c-0.6,0-1.1-0.1-1.5-0.4
					c-0.3-0.2-0.5-0.5-0.6-0.8v-5.8c0-0.1,0.1-0.2,0.1-0.2c0.2-0.3,0.4-0.5,0.8-0.7c0.3-0.2,0.7-0.2,1.2-0.2c0.4,0,0.8,0.1,1,0.3
					c0.3,0.2,0.5,0.5,0.7,0.8c0.2,0.4,0.3,0.8,0.4,1.3c0.1,0.5,0.1,1,0.1,1.6v0.3c0,0.6,0,1.1-0.1,1.6
					C798.2,132,798,132.4,797.9,132.8z"/>
				<path class="st7" d="M798.6,84.5c0,0.6,0,1.2-0.1,1.8c-0.1,0.6-0.2,1-0.4,1.5c-0.2,0.4-0.5,0.7-0.9,1c-0.3,0.2-0.8,0.3-1.3,0.3
					c-0.5,0-1-0.1-1.4-0.3c-0.4-0.2-0.6-0.5-0.9-1c-0.2-0.4-0.4-0.9-0.5-1.5c-0.1-0.6-0.1-1.1-0.1-1.8v-0.3c0-0.6,0-1.2,0.1-1.7
					c0.1-0.6,0.2-1,0.5-1.5c0.2-0.4,0.5-0.8,0.8-1c0.4-0.2,0.8-0.4,1.3-0.4c0.5,0,1,0.1,1.4,0.4c0.4,0.2,0.6,0.6,0.9,1
					c0.2,0.4,0.4,0.9,0.4,1.5c0.1,0.5,0.1,1.1,0.1,1.7V84.5z"/>
				<path class="st8" d="M799.2,92.5c-1,0.4-2.1,0.6-3.4,0.6c-1.3,0-2.4-0.2-3.4-0.6c-1-0.4-1.8-1-2.5-1.8c-0.7-0.8-1.2-1.7-1.5-2.7
					c-0.3-1.1-0.5-2.2-0.5-3.4v-0.3c0-1.2,0.2-2.4,0.5-3.4c0.3-1.1,0.8-2,1.5-2.7c0.7-0.8,1.5-1.4,2.4-1.8c1-0.4,2.1-0.7,3.4-0.7
					c1.3,0,2.4,0.2,3.4,0.7c1,0.4,1.8,1,2.5,1.8c0.7,0.8,1.2,1.7,1.5,2.7c0.3,1,0.5,2.2,0.5,3.4v0.3c0,1.2-0.2,2.4-0.5,3.4
					c-0.3,1-0.8,2-1.5,2.7C801,91.5,800.2,92.1,799.2,92.5z M798,81c-0.2-0.4-0.5-0.8-0.9-1c-0.4-0.2-0.8-0.4-1.4-0.4
					c-0.5,0-1,0.1-1.3,0.4c-0.3,0.2-0.6,0.6-0.8,1c-0.2,0.4-0.4,0.9-0.5,1.5c-0.1,0.5-0.1,1.1-0.1,1.7v0.3c0,0.6,0,1.2,0.1,1.8
					c0.1,0.6,0.2,1,0.5,1.5c0.2,0.4,0.5,0.7,0.9,1c0.4,0.2,0.8,0.3,1.4,0.3c0.5,0,1-0.1,1.3-0.3c0.4-0.2,0.6-0.5,0.9-1
					c0.2-0.4,0.4-0.9,0.4-1.5c0.1-0.6,0.1-1.1,0.1-1.8v-0.3c0-0.6,0-1.2-0.1-1.7C798.4,81.9,798.2,81.4,798,81z"/>
				<path class="st7" d="M795.8,93.1c1.3,0,2.4-0.2,3.4-0.6c1-0.4,1.8-1,2.4-1.8c0.7-0.8,1.2-1.7,1.5-2.7c0.3-1.1,0.5-2.2,0.5-3.4
					v-0.3c0-1.2-0.2-2.4-0.5-3.4c-0.3-1.1-0.8-2-1.5-2.7c-0.7-0.8-1.5-1.4-2.5-1.8c-1-0.4-2.1-0.7-3.4-0.7c-1.3,0-2.4,0.2-3.4,0.7
					c-1,0.4-1.8,1-2.4,1.8c-0.7,0.8-1.2,1.7-1.5,2.7c-0.3,1-0.5,2.2-0.5,3.4v0.3c0,1.2,0.2,2.4,0.5,3.4c0.3,1,0.8,2,1.5,2.7
					c0.7,0.8,1.5,1.4,2.5,1.8C793.4,92.9,794.6,93.1,795.8,93.1z M811,84.4c0,8.8-6.9,16-15.4,16c-8.5,0-15.4-7.2-15.4-16
					s6.9-16,15.4-16C804.1,68.4,811,75.6,811,84.4z"/>
				<path class="st8" d="M794,136v6.9h-4.4v-20.5h4.1l0.1,1.4c0.3-0.4,0.7-0.8,1.2-1.1c0.6-0.4,1.3-0.6,2.2-0.6
					c0.9,0,1.7,0.2,2.4,0.5c0.7,0.4,1.3,0.9,1.7,1.5c0.5,0.7,0.8,1.4,1.1,2.4c0.2,0.9,0.4,1.9,0.4,3.1v0.3c0,1.1-0.1,2.1-0.4,3
					c-0.2,0.9-0.6,1.7-1,2.4c-0.5,0.7-1,1.2-1.7,1.6c-0.7,0.4-1.5,0.6-2.4,0.6c-0.8,0-1.6-0.2-2.2-0.6
					C794.7,136.7,794.3,136.4,794,136z M797.2,133.6c0.3-0.2,0.5-0.5,0.7-0.9c0.2-0.4,0.3-0.8,0.4-1.3c0.1-0.5,0.1-1,0.1-1.6v-0.3
					c0-0.6,0-1.1-0.1-1.6c-0.1-0.5-0.2-0.9-0.4-1.3c-0.2-0.4-0.4-0.6-0.7-0.8c-0.3-0.2-0.6-0.3-1-0.3c-0.5,0-0.9,0.1-1.2,0.2
					c-0.3,0.1-0.6,0.4-0.8,0.7c0,0.1-0.1,0.2-0.1,0.2v5.8c0.2,0.3,0.4,0.6,0.6,0.8c0.4,0.3,0.9,0.4,1.5,0.4
					C796.6,133.9,796.9,133.8,797.2,133.6z"/>
				<polygon class="st8" points="798.9,170.5 804.2,170.5 798.8,180.4 804.3,190.4 799,190.4 795.8,183.7 792.6,190.4 787.2,190.4 
					792.7,180.4 787.4,170.5 792.6,170.5 795.8,177.1 				"/>
				<path class="st7" d="M798.8,180.4l5.3-9.9h-5.3l-3.1,6.6l-3.1-6.6h-5.3l5.3,9.9l-5.5,10h5.3l3.2-6.7l3.2,6.7h5.3L798.8,180.4z
					 M811,180.4c0,8.8-6.9,16-15.4,16c-8.5,0-15.4-7.2-15.4-16s6.9-16,15.4-16C804.1,164.4,811,171.6,811,180.4z"/>
				<path class="st7" d="M802.8,255.4v-32.5c0-1.2-0.9-2.2-2-2.2h-44.9c-1.1,0-2,1-2,2.2v32.5H802.8z M806.8,241
					c0.1,0,0.1-0.1,0.2-0.1v18.9h-57.2v-19.9l1.2-3.3c1-2.7,0.4-5.6-1.2-7.7v-6c0-3.6,2.7-6.5,6.1-6.5h44.9c2.9,0,5.4,2.2,6,5.1
					v18.9C806.8,240.6,806.8,240.8,806.8,241z"/>
				<path class="st7" d="M749.8,228.9c1.7,2.1,2.3,5.1,1.2,7.7l-1.2,3.3V228.9z"/>
				<path class="st7" d="M745.7,262H811c0,3.6-2.7,6.5-6.1,6.5h-53.1C748.4,268.4,745.7,265.5,745.7,262z"/>
				<path class="st7" d="M736.3,243c2,0.8,2.9,3.1,2.2,5c-0.7,2-2.9,2.9-4.9,2.1c-2-0.8-2.9-3.1-2.2-5
					C732.1,243.1,734.3,242.2,736.3,243z"/>
				<path class="st8" d="M747.5,235.2l-10.9,28.6c-0.7,2-2.9,2.9-4.9,2.1l-42.6-17.5c-2-0.8-2.9-3.1-2.2-5l10.9-28.6
					c0.8-2,3-2.9,4.9-2.1l42.6,17.5C747.2,230.9,748.2,233.2,747.5,235.2z M738.5,248c0.8-2-0.2-4.2-2.2-5c-2-0.8-4.2,0.1-4.9,2.1
					c-0.8,2,0.2,4.2,2.2,5C735.5,250.9,737.7,250,738.5,248z"/>
				<path class="st7" d="M744.7,169.9c1.8-0.9,3.2-2.2,4.1-3.7c0.9-1.5,1.3-3.2,1.3-5.1c0-1.6-0.2-3-0.7-4.3
					c-0.4-1.3-1.3-2.5-2.5-3.7c-1.2-1.1-3-2.3-5.3-3.4c-2.3-1.2-5.2-2.4-8.9-3.7c-4.3-1.5-8.5-3.2-12.5-5.1c-4-1.9-7.6-4.1-10.7-6.7
					c-3.2-2.6-5.7-5.6-7.5-9c-1.8-3.5-2.8-7.5-2.8-12.1c0-4.4,0.9-8.4,2.8-11.9c1.9-3.6,4.5-6.6,7.9-9.1c3.4-2.5,7.4-4.5,12-5.8
					c4.6-1.4,9.6-2,15.1-2c7.2,0,13.6,1.3,19.1,3.9c5.5,2.6,9.9,6.3,13,11c3.2,4.7,4.7,10.3,4.7,16.8h-23.6c0-2.6-0.5-4.9-1.6-6.8
					c-1-2-2.5-3.5-4.5-4.6c-2-1.1-4.6-1.7-7.6-1.7c-3,0-5.5,0.5-7.5,1.4c-2,0.9-3.6,2.2-4.6,3.8c-1,1.5-1.6,3.3-1.6,5.1
					c0,1.5,0.4,3,1.2,4.2c0.9,1.2,2,2.4,3.6,3.4c1.6,1.1,3.5,2.1,5.7,3.1c2.2,1,4.8,1.9,7.6,2.9c5.2,1.7,9.9,3.7,13.9,5.8
					c4.1,2.1,7.5,4.5,10.3,7.2c2.8,2.7,5,5.7,6.4,9.1c1.5,3.4,2.2,7.3,2.2,11.6c0,4.6-0.9,8.7-2.6,12.2c-1.7,3.6-4.2,6.6-7.4,9.1
					c-3.2,2.4-7,4.3-11.5,5.6c-4.5,1.3-9.4,1.9-14.9,1.9c-5,0-10-0.7-14.9-2c-4.9-1.4-9.3-3.4-13.2-6.2c-4-2.8-7.1-6.4-9.5-10.8
					c-2.3-4.4-3.5-9.6-3.5-15.7h23.8c0,3,0.4,5.5,1.1,7.6c0.8,2.1,1.9,3.7,3.4,5c1.5,1.2,3.3,2.1,5.5,2.7c2.2,0.5,4.6,0.8,7.4,0.8
					C740.4,171.3,742.8,170.8,744.7,169.9z"/>
				<path class="st7" d="M749.8,239.9l-9.6,25.4c-1.5,4-5.9,5.8-9.8,4.2L687.7,252c-2.2-0.9-3.8-2.8-4.5-4.9l1.9-9.7l9.1-24
					c1.5-4,5.9-5.9,9.8-4.2l42.6,17.5c1.3,0.5,2.3,1.3,3.1,2.4V239.9z M736.6,263.8l10.9-28.6c0.8-2-0.2-4.2-2.2-5l-42.6-17.5
					c-2-0.8-4.2,0.1-4.9,2.1l-10.9,28.6c-0.7,2,0.2,4.2,2.2,5l42.6,17.5C733.6,266.7,735.8,265.8,736.6,263.8z"/>
				<path class="st7" d="M620.8,175.8c-2.9-4.8-4.3-10.9-4.3-18.3h23.8c0,3.5,0.4,6.2,1.1,8.2c0.8,1.9,1.9,3.3,3.4,4.1
					c1.5,0.7,3.4,1.1,5.6,1.1c2.2,0,4-0.6,5.5-1.7c1.5-1.2,2.7-2.8,3.5-5c0.8-2.2,1.2-4.8,1.2-7.9V86h23.6v70.3
					c0,6.8-1.5,12.8-4.5,17.8c-3,5-7,8.9-12.2,11.7c-5.1,2.7-10.8,4.1-17.2,4.1c-6.6,0-12.4-1.2-17.6-3.4
					C627.8,184.1,623.8,180.6,620.8,175.8z"/>
				<path class="st7" d="M683.2,247c-0.5-1.6-0.5-3.4,0.1-5.2l1.7-4.6L683.2,247z"/>
				<path class="st7" d="M662.2,249.2c2.2,0.5,3.6,2.7,3.2,5c-0.4,2.3-2.6,3.8-4.8,3.3c-2.2-0.5-3.6-2.7-3.2-5
					C657.9,250.2,660,248.8,662.2,249.2z"/>
				<path class="st8" d="M645.8,248.9l8.5-44.3c0.4-2.3,2.6-3.8,4.8-3.3l23.8,5c2.2,0.5,3.6,2.7,3.2,5l-9.5,49.5
					c-0.4,2.3-2.6,3.8-4.8,3.3l-23.8-5c-1.7-0.4-3-1.8-3.2-3.6c1.1-2.2,1.1-4.4,1.1-4.4V248.9z M665.4,254.2c0.4-2.3-1-4.5-3.2-5
					c-2.2-0.5-4.3,1-4.8,3.3c-0.4,2.3,1,4.5,3.2,5C662.8,257.9,664.9,256.4,665.4,254.2z"/>
				<path class="st7" d="M645.8,248.9v2.2c0,0,0,2.2-1.1,4.4c-0.1-0.4,0-0.9,0-1.4L645.8,248.9z"/>
				<path class="st7" d="M645.8,227.4v21.4l-1,5.3c-0.1,0.5-0.1,0.9,0,1.4c-0.6,1.3-1.6,2.6-3.2,3.4c-0.7-1.4-1-3-0.9-4.7
					c0.2-0.2,0.3-0.5,0.4-0.7c0.3-0.6,0.4-1.2,0.5-1.8c0-0.3,0.1-0.5,0.1-0.6c0-0.1,0-0.1,0-0.1v-2.4L645.8,227.4z"/>
				<path class="st7" d="M644.7,255.5c0.2,1.7,1.5,3.2,3.2,3.6l23.8,5c2.2,0.5,4.3-1,4.8-3.3l9.5-49.5c0.4-2.3-1-4.5-3.2-5l-23.8-5
					c-2.2-0.5-4.3,1-4.8,3.3l-8.5,44.3v-21.4l4.6-23.7c0.9-4.6,5.1-7.5,9.5-6.6l23.8,5c4.4,0.9,7.2,5.4,6.3,9.9l-4.9,25.2l-1.7,4.6
					c-0.7,1.7-0.7,3.5-0.1,5.2l-2.8,14.6c-0.9,4.6-5.1,7.5-9.5,6.6l-23.8-5c-2.5-0.5-4.5-2.2-5.6-4.3
					C643.1,258.1,644.1,256.8,644.7,255.5z"/>
				<path class="st7" d="M640.8,253.3l0.9-4.7v2.4c0,0,0,0,0,0.1c0,0.1,0,0.3-0.1,0.6c-0.1,0.5-0.2,1.2-0.5,1.8
					c-0.1,0.3-0.3,0.5-0.4,0.7C640.7,253.9,640.7,253.6,640.8,253.3z"/>
				<path class="st8" d="M607.8,132.5l-6,6.1c-0.3,0.3-0.9,0.3-1.2,0c-0.3-0.3-0.3-0.9,0-1.2l5.4-5.5l-5.4-5.5
					c-0.3-0.3-0.3-0.9,0-1.2c0.3-0.3,0.9-0.3,1.2,0l6,6.1C608.1,131.6,608.1,132.1,607.8,132.5z"/>
				<path class="st8" d="M604.4,84.4c0,2.9-1.3,5.4-3.3,7.1l-2.5-6.1l5.7-2.2C604.4,83.6,604.4,84,604.4,84.4z"/>
				<path class="st7" d="M588.1,186.9c0,2.2,2.1,3.6,4,3.6h7.9c1.9,0,4-1.3,4-3.6v-6.6c0-1.7-1.2-2.9-2.6-3.4v-3
					c0-3-2.4-5.5-5.3-5.5s-5.3,2.5-5.3,5.5v3c-1.4,0.5-2.6,1.6-2.6,3.4V186.9z M611.2,180.4c0,8.8-6.9,16-15.4,16s-15.4-7.2-15.4-16
					s6.9-16,15.4-16S611.2,171.6,611.2,180.4z"/>
				<path class="st8" d="M592.1,190.4c-1.9,0-4-1.3-4-3.6v-6.6c0-1.7,1.2-2.9,2.6-3.4v-3c0-3,2.4-5.5,5.3-5.5s5.3,2.5,5.3,5.5v3
					c1.4,0.5,2.6,1.6,2.6,3.4v6.6c0,2.2-2.1,3.6-4,3.6H592.1z M598.7,176.7v-2.7c0-1.5-1.2-2.8-2.6-2.8s-2.6,1.2-2.6,2.8v2.7H598.7z
					"/>
				<path class="st7" d="M598.7,173.9v2.7h-5.3v-2.7c0-1.5,1.2-2.8,2.6-2.8S598.7,172.4,598.7,173.9z"/>
				<path class="st8" d="M599.5,120.7l-6.8,22.8c-0.1,0.5-0.6,0.7-1.1,0.6c-0.5-0.1-0.7-0.6-0.6-1.1l6.8-22.8
					c0.1-0.5,0.6-0.7,1.1-0.6C599.4,119.8,599.6,120.3,599.5,120.7z"/>
				<path class="st7" d="M591.7,85.4l-1.6,0.5l-0.3-0.9l2.9-1c0.2-0.1,0.4,0,0.5,0.2s0.1,0.4,0,0.6l-1.1,1.8l1.6-0.5
					c0.2-0.1,0.4,0,0.5,0.2c0.1,0.2,0.1,0.4,0,0.6l-1.1,1.8l1.6-0.5l0.3,1l-2.9,1c-0.2,0.1-0.4,0-0.5-0.2c-0.1-0.2-0.1-0.4,0-0.6
					l1.1-1.8l-1.6,0.5c-0.2,0.1-0.4,0-0.5-0.2c-0.1-0.2-0.1-0.4,0-0.6L591.7,85.4z"/>
				<path class="st8" d="M587.7,87.6c-0.4-1-0.6-2.1-0.6-3.2c0-5,3.9-9,8.6-9c2.5,0,4.8,1.1,6.4,2.9l-7.4,3.1l1.9,5l2.6,6.2
					c-1.1,0.5-2.3,0.8-3.5,0.8c-1.1,0-2.1-0.2-3.1-0.6l-3.2,4c-2.4-1.3-4.4-3.4-5.7-5.9L587.7,87.6z M591.7,85.4l-1.1,1.8
					c-0.1,0.2-0.1,0.4,0,0.6c0.1,0.2,0.3,0.2,0.5,0.2l1.6-0.5l-1.1,1.8c-0.1,0.2-0.1,0.4,0,0.6c0.1,0.2,0.3,0.2,0.5,0.2l2.9-1
					l-0.3-1l-1.6,0.5l1.1-1.8c0.1-0.2,0.1-0.4,0-0.6c-0.1-0.2-0.3-0.2-0.5-0.2l-1.6,0.5l1.1-1.8c0.1-0.2,0.1-0.4,0-0.6
					s-0.3-0.2-0.5-0.2l-2.9,1l0.3,0.9L591.7,85.4z"/>
				<path class="st7" d="M601.2,91.5c2-1.7,3.3-4.2,3.3-7.1c0-0.4,0-0.8-0.1-1.2l-5.7,2.2L601.2,91.5z M583.9,90.9
					c1.3,2.5,3.2,4.6,5.7,5.9l3.2-4c1,0.4,2,0.6,3.1,0.6c1.3,0,2.4-0.3,3.5-0.8l-2.6-6.2l-1.9-5l7.4-3.1c-1.6-1.8-3.9-2.9-6.4-2.9
					c-4.8,0-8.6,4-8.6,9c0,1.1,0.2,2.2,0.6,3.2L583.9,90.9z M611.2,84.4c0,8.8-6.9,16-15.4,16s-15.4-7.2-15.4-16s6.9-16,15.4-16
					S611.2,75.6,611.2,84.4z"/>
				<path class="st8" d="M589.9,126.4l-5.4,5.5l5.4,5.5c0.3,0.3,0.3,0.9,0,1.2c-0.3,0.3-0.9,0.3-1.2,0l-6-6.1
					c-0.3-0.3-0.3-0.9,0-1.2l6-6.1c0.3-0.3,0.9-0.3,1.2,0C590.2,125.5,590.2,126,589.9,126.4z"/>
				<path class="st7" d="M584.7,224.1v-6.8c1-0.5,2.3-0.9,3.9-0.9h49c0,0,8.2,0,8.2,8.7v2.3l-4.1,21.2v-23.5c0-1.4-0.3-2.2-0.6-2.6
					c-0.3-0.5-0.7-0.8-1.2-1.1c-0.6-0.3-1.2-0.5-1.7-0.5c-0.2,0-0.4-0.1-0.5-0.1c0,0-0.1,0-0.1,0h-49c-1.3,0-2.1,0.3-2.5,0.6
					c-0.4,0.3-0.8,0.7-1,1.3C584.9,223.2,584.7,223.6,584.7,224.1z"/>
				<path class="st7" d="M597.9,120.2L591,143c-0.1,0.5,0.1,1,0.6,1.1c0.4,0.1,0.9-0.1,1.1-0.6l6.8-22.8c0.1-0.5-0.1-1-0.6-1.1
					C598.5,119.5,598,119.8,597.9,120.2z M601.8,138.6l6-6.1c0.3-0.3,0.3-0.9,0-1.2l-6-6.1c-0.3-0.3-0.9-0.3-1.2,0
					c-0.3,0.3-0.3,0.9,0,1.2l5.4,5.5l-5.4,5.5c-0.3,0.3-0.3,0.9,0,1.2C601,139,601.5,139,601.8,138.6z M579.5,131.9
					c0-9,7-16.4,15.7-16.4c8.7,0,15.7,7.3,15.7,16.4s-7,16.4-15.7,16.4C586.6,148.2,579.5,140.9,579.5,131.9z M584.5,131.9l5.4-5.5
					c0.3-0.3,0.3-0.9,0-1.2c-0.3-0.3-0.9-0.3-1.2,0l-6,6.1c-0.3,0.3-0.3,0.9,0,1.2l6,6.1c0.3,0.3,0.9,0.3,1.2,0
					c0.3-0.3,0.3-0.9,0-1.2L584.5,131.9z"/>
				<path class="st7" d="M584.5,225c0-0.1,0-0.3,0.1-0.6c0-0.1,0-0.3,0.1-0.4v16.4c0,0.2,0,0.4,0,0.5c-0.1,0-0.1-0.1-0.2-0.1v-15.7
					C584.5,225.1,584.5,225.1,584.5,225z"/>
				<path class="st8" d="M584.5,251.1v-10.2c0.1,0,0.1,0.1,0.2,0.1c0-0.2,0-0.4,0-0.5v-16.4c0.1-0.4,0.2-0.9,0.4-1.4
					c0.3-0.6,0.6-1,1-1.3c0.4-0.3,1.1-0.6,2.5-0.6h49c0,0,0,0,0.1,0c0.1,0,0.3,0,0.5,0.1c0.5,0.1,1.1,0.3,1.7,0.5
					c0.5,0.3,1,0.6,1.2,1.1c0.3,0.4,0.6,1.2,0.6,2.6v23.5l-0.9,4.7c-0.1,0.3-0.1,0.6-0.1,0.9c-0.2,0.2-0.4,0.4-0.6,0.6
					c-0.4,0.3-1.1,0.6-2.5,0.6h-49c0,0,0,0-0.1,0c-0.1,0-0.3,0-0.5-0.1c-0.5-0.1-1.1-0.3-1.7-0.5c-0.5-0.3-1-0.6-1.2-1.1
					C584.8,253.3,584.5,252.5,584.5,251.1z"/>
				<path class="st7" d="M584.5,225.1v15.7c-1.5-0.9-2.8-1.9-4.1-3.1v-12.7c0,0,0-5.6,4.2-7.8v6.8c0,0.1-0.1,0.3-0.1,0.4
					c0,0.3-0.1,0.5-0.1,0.6C584.5,225.1,584.5,225.1,584.5,225.1z"/>
				<path class="st7" d="M580.4,251.1v-13.3c1.2,1.2,2.6,2.2,4.1,3.1v10.2c0,1.4,0.3,2.2,0.6,2.6c0.3,0.5,0.7,0.8,1.2,1.1
					c0.6,0.3,1.2,0.5,1.7,0.5c0.2,0,0.4,0.1,0.5,0.1c0,0,0.1,0,0.1,0h49c1.3,0,2.1-0.3,2.5-0.6c0.2-0.2,0.4-0.4,0.6-0.6
					c-0.1,1.7,0.2,3.3,0.9,4.7c-1,0.5-2.3,0.9-4,0.9h-16.3c0,2.9,0.3,5.1,1,6.5h3.1c1.1,0,2,1,2,2.2h-28.6c0-1.2,0.9-2.2,2-2.2h3.1
					c0.7-1.4,1-3.6,1-6.5h-16.3C588.6,259.8,580.4,259.8,580.4,251.1z"/>
				<path class="st8" d="M616.5,157.5c0,7.4,1.4,13.5,4.3,18.3c2.9,4.8,6.9,8.3,12,10.6c5.1,2.3,11,3.4,17.6,3.4
					c6.3,0,12.1-1.4,17.2-4.1c5.1-2.8,9.2-6.7,12.2-11.7c3-5,4.5-10.9,4.5-17.8V86h-23.6v70.3c0,3-0.4,5.7-1.2,7.9
					c-0.8,2.2-2,3.8-3.5,5c-1.5,1.1-3.3,1.7-5.5,1.7c-2.2,0-4.1-0.4-5.6-1.1c-1.5-0.8-2.6-2.2-3.4-4.1c-0.8-2-1.1-4.7-1.1-8.2H616.5
					z M748.7,166.3c-0.9,1.5-2.2,2.7-4.1,3.7c-1.8,0.9-4.3,1.3-7.3,1.3c-2.8,0-5.3-0.3-7.4-0.8c-2.2-0.6-4-1.5-5.5-2.7
					c-1.5-1.3-2.6-2.9-3.4-5c-0.8-2.1-1.1-4.6-1.1-7.6h-23.8c0,6,1.2,11.3,3.5,15.7c2.4,4.4,5.6,7.9,9.5,10.8
					c4,2.8,8.4,4.8,13.2,6.2c4.9,1.3,9.9,2,14.9,2c5.5,0,10.5-0.6,14.9-1.9c4.5-1.3,8.3-3.1,11.5-5.6c3.2-2.5,5.7-5.5,7.4-9.1
					c1.7-3.6,2.6-7.6,2.6-12.2c0-4.3-0.7-8.2-2.2-11.6c-1.4-3.4-3.6-6.5-6.4-9.1c-2.8-2.7-6.2-5.1-10.3-7.2
					c-4.1-2.2-8.7-4.1-13.9-5.8c-2.8-0.9-5.3-1.9-7.6-2.9c-2.2-1-4.1-2-5.7-3.1c-1.5-1.1-2.7-2.2-3.6-3.4c-0.8-1.3-1.2-2.7-1.2-4.2
					c0-1.9,0.5-3.6,1.6-5.1c1-1.6,2.6-2.9,4.6-3.8c2-0.9,4.5-1.4,7.5-1.4c3.1,0,5.6,0.6,7.6,1.7c2,1.1,3.5,2.7,4.5,4.6
					c1,2,1.6,4.2,1.6,6.8h23.6c0-6.5-1.6-12.1-4.7-16.8c-3.1-4.8-7.4-8.5-13-11c-5.5-2.6-11.8-3.9-19.1-3.9c-5.4,0-10.5,0.7-15.1,2
					c-4.6,1.3-8.6,3.2-12,5.8c-3.4,2.5-6,5.5-7.9,9.1c-1.9,3.5-2.8,7.5-2.8,11.9c0,4.6,0.9,8.6,2.8,12.1c1.8,3.4,4.3,6.4,7.5,9
					c3.1,2.5,6.7,4.8,10.7,6.7c4,1.9,8.2,3.6,12.5,5.1c3.7,1.3,6.7,2.5,8.9,3.7c2.3,1.1,4.1,2.3,5.3,3.4c1.2,1.1,2,2.3,2.5,3.7
					c0.5,1.3,0.7,2.7,0.7,4.3C750,163.1,749.6,164.7,748.7,166.3z M795.6,196.4c8.5,0,15.4-7.2,15.4-16s-6.9-16-15.4-16
					c-8.5,0-15.4,7.2-15.4,16S787.1,196.4,795.6,196.4z M795.6,148.4c8.5,0,15.4-7.2,15.4-16c0-8.8-6.9-16-15.4-16
					c-8.5,0-15.4,7.2-15.4,16C780.3,141.3,787.1,148.4,795.6,148.4z M795.6,100.4c8.5,0,15.4-7.2,15.4-16s-6.9-16-15.4-16
					c-8.5,0-15.4,7.2-15.4,16S787.1,100.4,795.6,100.4z M580.4,84.4c0,8.8,6.9,16,15.4,16s15.4-7.2,15.4-16s-6.9-16-15.4-16
					S580.4,75.6,580.4,84.4z M580.4,180.4c0,8.8,6.9,16,15.4,16s15.4-7.2,15.4-16s-6.9-16-15.4-16S580.4,171.6,580.4,180.4z
					 M588.1,162.1v-11.3c-6.8-3.1-11.5-10.1-11.5-18.3c0-8.2,4.7-15.2,11.5-18.3v-11.3c-6.8-3.1-11.5-10.1-11.5-18.3
					c0-11,8.6-20,19.2-20c4,0,7.8,1.3,10.9,3.5h178.1c3.1-2.2,6.8-3.5,10.9-3.5c10.6,0,19.2,9,19.2,20c0,8.2-4.7,15.2-11.5,18.3
					v11.3c6.8,3.1,11.5,10.1,11.5,18.3c0,8.2-4.7,15.2-11.5,18.3v11.3c6.8,3.1,11.5,10.1,11.5,18.3c0,8.2-4.7,15.2-11.5,18.3v11
					c2.1,1.4,3.5,3.9,3.5,6.7v5.1c-0.6-2.9-3-5.1-6-5.1h-44.9c-3.4,0-6.1,2.9-6.1,6.5v6c-0.8-1-1.9-1.8-3.1-2.4L704.1,209
					c-3.9-1.6-8.3,0.3-9.8,4.2l-9.1,24l4.9-25.2c0.9-4.6-2-9-6.3-9.9l-23.8-5c-4.4-0.9-8.6,2-9.5,6.6l-4.6,23.7v-2.3
					c0-8.7-8.2-8.7-8.2-8.7h-49c-1.6,0-2.9,0.3-3.9,0.9v-0.9c0-2.8,1.4-5.2,3.5-6.7v-11c-6.8-3.1-11.5-10.1-11.5-18.3
					C576.6,172.2,581.3,165.2,588.1,162.1z M611,131.9c0-9-7-16.4-15.7-16.4c-8.7,0-15.7,7.3-15.7,16.4s7,16.4,15.7,16.4
					C603.9,148.2,611,140.9,611,131.9z"/>
				<path class="st7" d="M747.6,46.4l-89.4,5.5h114.3v-3.5C772.6,43.2,752.4,45.2,747.6,46.4z M576.6,132.4
					c0,8.2,4.7,15.2,11.5,18.3v11.3c-6.8,3.1-11.5,10.1-11.5,18.3c0,8.2,4.7,15.2,11.5,18.3v11c-2.1,1.4-3.5,3.9-3.5,6.7v0.9
					c-4.2,2.2-4.2,7.8-4.2,7.8v12.7c-4.7-4.4-7.7-10.8-7.7-17.9v-144c0-12.9,9.8-23.4,22-24l160.5-25.5c14.5-3.8,40.3,9.9,40.3,25.5
					c12.7,0,23.1,10.7,23.1,24v144c0,9-4.7,16.8-11.8,20.9v-17.9c0-0.5,0-0.9-0.1-1.4v-5.1c0-2.8-1.4-5.2-3.5-6.7v-11
					c6.8-3.1,11.5-10.1,11.5-18.3c0-8.2-4.7-15.2-11.5-18.3v-11.3c6.8-3.1,11.5-10.1,11.5-18.3c0-8.2-4.7-15.2-11.5-18.3v-11.3
					c6.8-3.1,11.5-10.1,11.5-18.3c0-11-8.6-20-19.2-20c-4,0-7.8,1.3-10.9,3.5H606.7c-3.1-2.2-6.8-3.5-10.9-3.5
					c-10.6,0-19.2,9-19.2,20c0,8.2,4.7,15.2,11.5,18.3v11.3C581.3,117.2,576.6,124.2,576.6,132.4z"/>
			</g>
			<g>
			</g>
		</g>
	</g>
</g>
</svg>
